<?xml version="1.0" encoding="UTF-8"?>
<svg id="Layer_1" data-name="Layer 1" xmlns="http://www.w3.org/2000/svg" viewBox="0 0 1800 1800">
  <defs>
    <style>
      .cls-1 {
        fill: #9f4e2a;
      }

      .cls-1, .cls-2, .cls-3 {
        stroke-width: 0px;
      }

      .cls-2 {
        fill: none;
      }

      .cls-3 {
        fill: #f0e9c5;
      }
    </style>
  </defs>
  <g>
    <g>
      <path class="cls-3" d="M641.297272367990445,828.786935054471542c-.855036896260572-9.991939067245767-2.062177904540476-19.447689367567364-2.363937575080854-28.936593324469868-.234736074678949-7.276204358445284-3.721804929479731-8.885589268014883-10.159651546059649-8.31542823570453-12.490026160160596,1.089568318733654-25.18122543401023,2.766079150271253-38.090276975940469,2.615250478047528-1.844223310349662-.016781480489954-3.218974471349611-.033562960981726-4.27518448129922-.234736074680768-7.393367743579802-.637082302071576-10.696147291280795-3.201988338646515-12.456463199170685-7.209078436479103l9.187348938559808-.586533208395849c12.456463199180689-1.02285170117284,24.946387033231076-2.028717269655317,37.822080266379999-3.084927279608564-.519714264729373-.117470363443317-.368885592509287-.150828672224634.787910974290753-.050344441478046,3.319458702089833-.284875863952038,6.689261845650435-.553174899609076,10.075846469710086-.821473935269751,1.559142794189938-1.240601643166883,1.592705755169845-3.218769819144654,1.15679656679913-4.995969533623793-.50293278423942-1.25738312365138-1.005967894579953-2.481203286321033-1.492119198329419-3.671460488007142-.10058655685043-.167814804915906-.167610152720044-.285080516152448-.201173113699952-.335424957627765l.083805076359567.06712592196709c-1.995051982569748-4.845140861403706-3.788930851439545-9.25427020832467-5.448660202489918-13.680283361842157-2.883549513710022-7.711908894620137-7.46049366554962-10.243456622414669-16.228612570119367-9.33807528467878-13.646822726959726,1.391430315381513-27.561842163480833,1.123335931920337-41.30925144729008.502830458135577-11.316448112860598-.519611938627349-15.490943711210093-4.023462273922632-17.184236023240373-9.840905742819814h60.941230121959961c.653863782559711-1.542668292004237.402346227399903-3.671665140205732-.050344441469861-5.499004643963417-7.527517261420144-5.733740718636-14.736493371799952-12.037437817387399-22.917874415779806-16.53057689286652-10.193214507029552-5.599488874713643-20.788775241469921-5.683191624972096-29.942458892950526,3.688446620695686-10.561997773449548,10.813413002519155-21.425857543539678,21.358731621576226-32.15546546971018,32.004534471381703-.570058706199234.653863782565168-3.537515622369028,4.241621520311128-1.022749375069907,6.806732209091933l47.847684620720429,4.710889017465888c-2.246569537749565,5.247384762697038-6.739606287129391,8.097371315421697-18.039272919500036,7.477275146047759-9.975259912849651-.55337955181858-20.000761941079872-1.307727565130335-29.892216777579961-2.682581052224123-.737668858919278-.083907402455225-1.475337717829461-.150828672220086-2.196225096259695-.21774994198131-7.913082008320089-.871818376752344-10.96434400085036,1.324304393414423-11.970311895430314,10.209689009227986l30.646667116990102,1.760418233993732c-2.045396424039609,5.347971319535645-6.404283655600011,8.38255415767162-17.737513248940559,8.198162524467989-3.101504107909932-.066921269764862-6.203110541910064-.134047191728314-9.304614649809082-.23473607467713-.184391633199994.016781480489954-.368885592510196.016781480489954-.570058706200143.033562960983545-8.449577753540325.352001785917309-11.584644822430164,4.057025234906178-12.741441389230204,6.488088731948665-2.866870359320274,8.835244826546841-4.61040478672021,18.139757150242076-6.957560881310201,27.830038873038575,49.641563489590226,1.106554451429474,97.17060463316011,10.897320404981656,146.158304340190625,3.872838253904774Z"/>
      <path class="cls-3" d="M656.201375892500437,945.824254436982301c12.238508604988965-1.978372828180909,15.843047823219422-9.757407644767227,16.765005989249403-15.625195555141545.167814804910449-6.890434959339473-.083702750260272-13.999029165070169-.083702750260272-21.610249176746947-68.803967688800185,24.912926398349555-136.568609174230005,15.541288152684501-204.852862598299907-1.5592451202956-3.872735927800022,16.916141639774651-.905279011629318,32.407085350980196,2.363937575080854,47.948373503657422,1.341188200009128,6.370618368511714,4.677428382588914,9.556029878869595,11.299666632368826,10.377503814150259,18.240446033190892,2.280030172618353,36.363524029040491,5.415097241505464,54.620649216620222,7.477172819943007.938841972611044.100688882946997,1.861004790840525.201377765893994,2.783065282959797.301861996638763l23.320220643170614,1.408211795876923c-2.011731136959497,5.381534280521009-6.353939214120146,8.432898599148757-17.703950287969747,8.214944004957943-.972302607499842-.016781480489954-1.978270502079795-.134047191731952-2.984136070560453-.251517555170722v.016781480491773c-11.098493518669784-.922162818224024-22.180307882949819-1.961386695485999-33.262019921139654-3.067941146913654-9.354959091260753-.95552112700716-18.60922929958997-2.917112474693567-28.249166580920246-4.459576114499214,2.481203286320124,15.960415860559806,4.275082155189921,18.106398841455302,17.586582250630272,20.118129978422076,13.412086652279868,2.011731136958588,26.857736265539643,3.772149370949592,40.286502072209259,5.716959238146956l23.169391970940524,2.950675435680751c-2.129099174289877,5.012751014109199-7.426930704559709,8.7849003850597-15.85972697761008,7.862737566839314v.016781480489954c-11.953530414930356-.754348013309937-23.840037234000192-4.191277078839448-36.112108799969974-5.49879999175937-5.834224949389863-.385769399100354-12.557049756019296.335220305430084-8.969292018269698,6.571791482199842.536495745219327.771129493809894,1.072991490439563,1.542258987609785,1.626166390059552,2.313593133610084.016781480489954.033562960989912.033562960979907.050344441479865.050344441480775.083702750259363,7.913082008310084,11.350011073840506,15.474162230710135,22.649677706210241,24.359649172629361,32.792650097880141,8.663541629799511,9.901175816050454,18.390149118300542,18.907919187120569,26.764312535729914,28.45750252165999,9.520522721970337,9.430475753480096,20.500317964000715,9.290902952319811,31.05310638840001,3.492389812020519.506002567260111-.284671211739806,1.012209786719723-.56944474959073,1.502556460580308-.854115961350544,1.502351808389903-.885632400319992,2.957224306120224-1.802781239620344,4.41240378215025-2.76761404177978.474383802179545-.316187650720167.9486652782698-.632477627539629,1.423253732659759-.964628149949931.384643811989918-.273619992889508.763455036259984-.54283996346021,1.145643021839533-.812162260130208,11.153135656370068-14.806791402879753,22.251731501140966-29.539805687250009,33.132679730029849-43.970344018380274-9.539350724478936,0-20.03432490205887.16761015271004-30.747253673839623.016781480489954l-19.933738345210259.150828672220086c1.626268716159757-5.565925913719184,5.750419873030296-8.969292018269698,17.083649466390852-9.539248398379641,1.609487235658889-.083907402449768,6.37072069460919.318438824940131,9.086660055609173.419127707889857,7.443712185050572-.067125921969819,14.87074521572049-.134251843939637,22.297675920290203-.43590918837981,7.644885298759618-.922162818220386,14.41795222077053-5.884569390859724,19.279874562660552-10.629021369310067,4.861820015789817-4.744451978450343,7.812495451459654-9.271154014920285,7.812495451459654-9.271154014920285,3.202192990850563-4.912266783366249,6.169547580920153-9.958580758459902,8.818463346050521-15.138941925290965,4.794796419929298-9.438764167627596,7.577861702899099-19.900175384229442,11.936748934439493-31.786579877196345-2.24656953774047.234736074680768-4.275082155189921.435909188372534-6.135984619930241.637082302075214-.603621667190055.050344441468042-1.190359527789951.117470363435132-1.760418233990094.184391633201813h-.067023595869614c-1.173578047299998.117265711236541-2.296811653110126.234736074673492-3.369803143559693.352206438117719-1.089670644840226.117265711240179-2.129201500400086.217749941984948-3.135067068889839.335220305429175-1.307625239020126.134047191726495-2.565008362670596.284875863950219-3.822391486321067.452690668862488-19.296656043139592,2.430858844845716-38.543069970909528,5.197142647319197-57.88996812942969,7.158733995009243-.184391633199994.016781480489954-.368783266409991,0-.55327722571019,0-10.092525624099835.670440610851074-14.350928624899097-2.062280230640681-16.664521758499177-7.075031244750789l15.306552078000095-2.145778328693268c.821473935269751-.134251843930542,1.64305019664971-.268503687859265,2.481305612419419-.368987918607672,1.140015086310086-.150828672223724,2.280030172620172-.301861996646039,3.420045258930259-.452486016665716l1.944707541089883-.268503687862903v.016781480492682c18.341032590050418-2.414077364356672,36.715628141059824-4.694107536982301,55.02309777012033-7.292576534538057Z"/>
      <path class="cls-3" d="M477.401557104960375,899.468484362398158c64.009171268869977,15.876713110312267,128.051905498719861,24.175359865525024,193.335241371729353-.670440610847436-4.107472002479881-19.749346712014813-15.893392264690192-34.619989601636917-24.845902802469936-50.899048939343629-3.570976257259645-6.487884079750074-8.382554157679806-8.0806921610274-15.541288152679954-8.181176391775807-28.282729541909248-.419127707882581-56.548677603320357-1.508900678820282-84.814727990839856-2.581892169268031-12.724659908739341-.486253629847852-25.432640663079837-1.928028386704682-38.157300571810083-2.045294097941223-3.420147585039558-.033562960987183-8.281967600830285,2.263248692132038-9.992041393349609,5.029532494600062-3.051261992520267,4.912062131166749-4.208058559320307,10.997804635728244-7.125171034020241,19.413921754385228,20.704867839010149,3.202192990847834,40.923584374279926,6.337260059728578,61.025035198310434,9.438764167625777l32.826008406669644,4.526497384269533c-2.531547727799989,5.247691740991286-7.158631668909948,7.980207930282631-18.441619146889934,6.924202572525246-11.936748934440402-1.106759103631703-23.957302945240372-2.51476624730094-35.659315805000006-4.979392705328792-7.225757590869762-.989084087992524-14.434836027350684-2.128996848199677-21.576686215759764-3.537413296278828-28.567810058069881-5.666614796677095-29.255134475510204-6.52165169293221-37.067732253080976,20.067785536944939-.301759670539468,2.263453344335176.352104112020243,5.68339627716523,6.035500389190929,7.493954300432961Z"/>
    </g>
    <g>
      <path class="cls-2" d="M477.401561273049992,899.468484362398158c64.009171268859973,15.876713110312267,128.051905498719861,24.175359865525024,193.335241371730262-.670440610847436-4.10747200248079-19.749346712014813-15.893392264700196-34.619989601636917-24.84590280248085-50.899048939343629-3.57097625724964-6.487884079750074-8.382554157669801-8.0806921610274-15.541288152679044-8.181176391775807-28.282729541900153-.419127707882581-56.548677603320357-1.508900678820282-84.814727990829851-2.581892169268031-12.72465990874116-.486253629847852-25.432640663080747-1.928028386704682-38.157300571820087-2.045294097941223-3.420147585030463-.033562960987183-8.28196760082028,2.263248692132038-9.992041393340514,5.029532494600062-3.051261992529362,4.912062131166749-4.208058559329402,10.997804635728244-7.125171034019331,19.413921754385228,20.704867839009239,3.202192990847834,40.923584374279017,6.337260059728578,61.025035198309524,9.438764167625777l32.826008406659639,4.526497384269533c-2.531547727799989,5.247691740991286-7.158631668909948,7.980207930282631-18.44161914687993,6.924202572525246-11.936748934450407-1.106759103631703-23.957302945239462-2.51476624730094-35.659315805000006-4.979392705328792-7.225757590869762-.989084087992524-14.434836027359779-2.128996848199677-21.576686215769769-3.537413296278828-28.567810058059877-5.666614796677095-29.255134475500199-6.52165169293221-37.067732253080067,20.067785536944939-.301759670540378,2.263453344335176.352104112030247,5.68339627716523,6.035500389200024,7.493954300432961Z"/>
      <path class="cls-2" d="M641.297276536070058,828.786935054471542c-.855036896260572-9.991939067245767-2.062177904530472-19.447689367567364-2.36393757506994-28.936593324469868-.234736074680768-7.276204358445284-3.721804929480641-8.885589268014883-10.159651546060559-8.31542823570453-12.490026160159687,1.089568318733654-25.181225434020234,2.766079150271253-38.090276975949564,2.615250478047528-1.844223310349662-.016781480489954-3.218974471340516-.033562960981726-4.275184481290125-.234736074680768-7.393367743589806-.637082302071576-10.696147291279885-3.201988338646515-12.45646319917978-7.209078436479103l9.187348938559808-.586533208395849c12.456463199169775-1.02285170117284,24.946387033230167-2.028717269655317,37.822080266390003-3.084927279608564-.519714264730283-.117470363443317-.368885592510196-.150828672224634.787910974289844-.050344441478046,3.319458702080738-.284875863952038,6.689261845650435-.553174899609076,10.075846469700082-.821473935269751,1.559142794200852-1.240601643166883,1.592705755180759-3.218769819144654,1.15679656680004-4.995969533623793-.50293278423942-1.25738312365138-1.005967894579953-2.481203286321033-1.492119198320324-3.671460488007142-.100586556859525-.167814804915906-.167610152719135-.285080516152448-.201173113699042-.335424957627765l.083805076349563.06712592196709c-1.995051982569748-4.845140861403706-3.788930851439545-9.25427020832467-5.448660202479914-13.680283361842157-2.883549513720027-7.711908894620137-7.46049366555053-10.243456622414669-16.228612570130281-9.33807528467878-13.646822726959726,1.391430315381513-27.561842163479923,1.123335931920337-41.30925144729008.502830458135577-11.316448112859689-.519611938627349-15.490943711200089-4.023462273922632-17.18423602322946-9.840905742819814h60.941230121949047c.653863782570625-1.542668292004237.402346227400812-3.671665140205732-.050344441469861-5.499004643963417-7.52751726140923-5.733740718636-14.736493371789038-12.037437817387399-22.917874415768893-16.53057689286652-10.193214507040466-5.599488874713643-20.788775241480835-5.683191624972096-29.942458892950526,3.688446620695686-10.561997773449548,10.813413002519155-21.425857543539678,21.358731621576226-32.15546546971018,32.004534471381703-.570058706209238.653863782565168-3.537515622369938,4.241621520311128-1.022749375069907,6.806732209091933l47.847684620710424,4.710889017465888c-2.24656953774047,5.247384762697038-6.739606287120296,8.097371315421697-18.039272919490031,7.477275146047759-9.975259912850561-.55337955181858-20.000761941080782-1.307727565130335-29.892216777579961-2.682581052224123-.737668858921097-.083907402455225-1.475337717840375-.150828672220086-2.196225096270609-.21774994198131-7.913082008309175-.871818376752344-10.964344000830351,1.324304393414423-11.9703118954194,10.209689009227986l30.646667116989192,1.760418233993732c-2.045396424049613,5.347971319535645-6.404283655600011,8.38255415767162-17.737513248949654,8.198162524467989-3.101504107899927-.066921269764862-6.20311054190006-.134047191728314-9.304614649799987-.23473607467713-.184391633199994.016781480489954-.368885592510196.016781480489954-.570058706210148.033562960983545-8.449577753539415.352001785917309-11.584644822420159,4.057025234906178-12.741441389220199,6.488088731948665-2.866870359319364,8.835244826546841-4.6104047867193,18.139757150242076-6.957560881310201,27.830038873038575,49.641563489591135,1.106554451429474,97.17060463316011,10.897320404981656,146.158304340180621,3.872838253904774Z"/>
      <path class="cls-2" d="M656.20138006058005,945.824254436982301c12.238508604989875-1.978372828180909,15.843047823229426-9.757407644767227,16.765005989249403-15.625195555141545.167814804910449-6.890434959339473-.083702750259363-13.999029165070169-.083702750259363-21.610249176746947-68.803967688790181,24.912926398349555-136.568609174230005,15.541288152684501-204.852862598289903-1.5592451202956-3.872735927800022,16.916141639774651-.905279011630228,32.407085350980196,2.363937575079945,47.948373503657422,1.341188200000033,6.370618368511714,4.677428382579819,9.556029878869595,11.299666632369735,10.377503814150259,18.240446033189983,2.280030172618353,36.363524029029577,5.415097241505464,54.620649216610218,7.477172819943007.938841972620139.100688882946997,1.861004790839615.201377765893994,2.783065282969801.301861996638763l23.320220643170614,1.408211795876923c-2.011731136970411,5.381534280521009-6.353939214130151,8.432898599148757-17.703950287970656,8.214944004957943-.972302607499842-.016781480489954-1.978270502079795-.134047191731952-2.984136070559543-.251517555170722v.016781480491773c-11.098493518669784-.922162818224024-22.180307882950729-1.961386695485999-33.262019921130559-3.067941146913654-9.354959091279852-.95552112700716-18.609229299599974-2.917112474693567-28.24916658093025-4.459576114499214,2.481203286321033,15.960415860559806,4.27508215519083,18.106398841455302,17.586582250631182,20.118129978422076,13.412086652269863,2.011731136958588,26.857736265539643,3.772149370949592,40.286502072209259,5.716959238146956l23.169391970939614,2.950675435680751c-2.129099174298972,5.012751014109199-7.426930704569713,8.7849003850597-15.859726977609171,7.862737566839314v.016781480489954c-11.95353041494036-.754348013309937-23.840037234000192-4.191277078839448-36.112108799970883-5.49879999175937-5.834224949388954-.385769399100354-12.557049756019296.335220305430084-8.969292018269698,6.571791482199842.536495745220236.771129493809894,1.072991490440472,1.542258987609785,1.626166390060462,2.313593133610084.016781480489954.033562960989912.033562960979907.050344441479865.050344441469861.083702750259363,7.913082008320089,11.350011073840506,15.47416223071923,22.649677706210241,24.359649172629361,32.792650097880141,6.506916734460901,7.43644703191967,13.598115503090412,14.373951997520635,20.273665651270676,21.414090041980671.000511630499204-.000306978300614.008390740250434-.004707000630333.008390740250434-.004707000630333.021386155009168.029162938660193.043079288328954.053004920089734.064465443349036.082065532649722,2.333956027619934,2.462886914319824,4.610814091120119,4.942350656930103,6.795783316330926,7.457526208640047,17.992407565428948,15.504655408680264,36.134825194279983-.106930775090404,41.650099688239607-5.705089410489563,10.312117435879372-13.689799689190295,20.572457864889657-27.308994369000175,30.641550811949855-40.662857470060771-9.539350724469841,0-20.03432490205978.16761015271004-30.747253673830528.016781480489954l-19.933738345219354.150828672220086c1.626268716159757-5.565925913719184,5.750419873039391-8.969292018269698,17.083649466389943-9.539248398379641,1.609487235669803-.083907402449768,6.3707206946101.318438824940131,9.086660055610082.419127707889857,7.443712185059667-.067125921969819,14.870745215729585-.134251843939637,22.297675920300208-.43590918837981,7.644885298749614-.922162818220386,14.417952220749612-5.884569390859724,19.279874562649638-10.629021369310067,4.861820015789817-4.744451978450343,7.812495451469658-9.271154014920285,7.812495451469658-9.271154014920285,3.202192990840558-4.912266783366249,6.169547580910148-9.958580758459902,8.818463346050521-15.138941925290965,4.794796419920203-9.438764167627596,7.577861702890004-19.900175384229442,11.936748934439493-31.786579877196345-2.246569537749565.234736074680768-4.275082155199925.435909188372534-6.135984619939336.637082302075214-.603621667190964.050344441468042-1.190359527779947.117470363435132-1.760418233991004.184391633201813h-.0670235958587c-1.173578047300907.117265711236541-2.29681165312104.234736074673492-3.369803143560603.352206438117719-1.089670644840226.117265711240179-2.12920150041009.217749941984948-3.135067068889839.335220305429175-1.307625239020126.134047191726495-2.565008362670596.284875863950219-3.822391486330162.452690668862488-19.296656043140501,2.430858844845716-38.543069970909528,5.197142647319197-57.889968129419685,7.158733995009243-.184391633210907.016781480489954-.368783266419996,0-.553277225720194,0-10.09252562409074.670440610851074-14.350928624890003-2.062280230640681-16.664521758500086-7.075031244750789l15.306552078000095-2.145778328693268c.821473935279755-.134251843930542,1.64305019664971-.268503687859265,2.481305612420329-.368987918607672,1.140015086310086-.150828672223724,2.280030172629267-.301861996646039,3.420045258929349-.452486016665716l1.944707541099888-.268503687862903v.016781480492682c18.341032590040413-2.414077364356672,36.715628141060733-4.694107536982301,55.023097770110326-7.292576534538057Z"/>
      <path class="cls-1" d="M660.057334507890118,854.102207680209176c-8.047231526150426-11.987093375917539-10.461411216600027-24.125015424053345-10.913999559370495-37.738275190025888-1.257383123649561-38.576530605796506-15.809484862239515-71.352092244882442-43.539039504529683-98.344080354358084-18.626010780089928-18.122975669746666-28.852685922010096-19.263093082159685-50.144393947720346-4.778014939432978-.285080516159724.201173113695404-.603621667189145.36898791861131-.87181837675962.586737860597168-38.392138972590146,31.317312380037947-66.876041628189341,68.066401155979293-68.183666867209467,120.557848872192153-.184391633210907,7.24243674526042-3.369803143570607,15.205863195055827-7.376688589200057,21.409076063051543-16.78188979584047,25.935573447319257-26.790610343570734,53.983771566745418-20.436671129450588,84.529749800783975,4.107472002479881,19.782705020796129,13.16067142321026,38.643451875561368,21.157558507879912,57.437277460563564,3.420147585040468,7.996989410779861,4.761335785049596,14.836875276449064,1.961591347690046,23.286555356089593-2.632134284640415,7.929863488800038-4.124253482969834,16.530576892870158-4.409231673029353,24.879568089560053-.285080516150629,7.929863488810042,2.028512617459455,15.725475133679538,11.651668418289773,22.146642595869707-2.782962956860501-17.921802556049443-5.700075431560435-33.982907299559884,3.671562814110075-49.524195452239837,27.173002981349782,44.72530598828962,48.835438469390283,63.944296521110118,63.129064477980137,72.145733480800118,4.556478931719539,3.044713122089888,9.842440634320155,5.398008782709439,15.614348988468919,5.839852884920219,2.389826078520855.301964322748972,3.663990682660369.090046968489332,3.722623538290463.075925966609248.580495968460127-.032642026079884,1.1851408966495-.127191342990045,1.80257658741084-.255712925290027,3.482771158579453-.49863508801991,7.100101139389153-1.76052056008939,10.803999001279408-4.010057554749437l-.007060500939588.007981435839611c5.558251456179278-2.086019885960013,13.76460006870002-11.618207783400067,20.304875111939509-20.197944336850014,10.082599992329961-10.971404501779944,20.206642055390148-23.834613950669336,28.265334104809881-34.62398031955945,1.589431319950563-1.759394972979862,3.164843964140346-3.530864425840264,4.701986646709884-5.334975904770545,3.481543245370631-4.083220716640426,6.191547692540553-8.815495889130034,8.904519596630053-13.547771061609637,1.796948651890489-2.590180583420079,2.809670069110325-4.096830088030401,2.810897982310053-4.098671957840452,1.751004232740343-1.83276278708945,3.398249799510268-2.472096263370076,3.306053982910271,1.769934561350055-1.709971466420029,9.556234531070004-6.890434959340382,38.02335570617015-7.678345933630226,38.57653060579014.033460634880612.016781480489954.100586556849521.016781480489954.16761015271004.016781480489954h.100586556849521c1.307727565120331.033358308780407,7.544298741901002-.335424957629584,11.282885151870687-10.059064989210128.083907402459772-.201173113689947.16771247881934-.435909188369806.251517555179817-.653863782559711,1.25738312365047-3.537413296270643,2.196225096270609-8.214944004959762,2.481203286310119-14.468296662230387.553277225720194-7.141952514519289.586840186700101-14.350826298799802,1.08977297094043-21.50956029379995.301759670549473-4.476357594990077-.16761015271004-9.539453050583688,1.743534427409031-13.278039460553373,24.594589899500534-48.048857734408557,25.164341627410977-95.34316280330404-5.364855126139446-140.843691329427202ZM502.096533077199638,797.084057927528193c1.15679656680004-2.431063497042487,4.291863635680784-6.136086946031355,12.741441389220199-6.488088731948665.201173113699952-.016781480493592.385667073010154-.016781480493592.570058706210148-.033562960983545,3.101504107899927.100688882948816,6.20311054190006.167814804912268,9.304614649799987.23473607467713,11.333229593349643.184391633203631,15.69211682490004-2.850191204932344,17.737513248949654-8.198162524467989l-30.646667116989192-1.760418233993732c1.005967894589048-8.885384615813564,4.057229887110225-11.081507385980331,11.9703118954194-10.209689009227986.720887378430234.066921269761224,1.458556237349512.133842539526086,2.196225096270609.21774994198131,9.891454836499179,1.374853487093787,19.9169568647294,2.129201500405543,29.892216777579961,2.682581052224123,11.299666632369735.620096169373937,15.792703381749561-2.229890383350721,18.039272919490031-7.477275146047759l-47.847684620710424-4.710889017465888c-2.514766247300031-2.565110688780806.452690668860669-6.152868426526766,1.022749375069907-6.806732209091933,10.729607926170502-10.645802849805477,21.593467696260632-21.191121468862548,32.15546546971018-32.004534471381703,9.153683651469692-9.371638245667782,19.74924438591006-9.287935495409329,29.942458892950526-3.688446620695686,8.181381043979854,4.493139075479121,15.390357154359663,10.796836174230521,22.917874415768893,16.53057689286652.452690668870673,1.827339503757685.704208224040485,3.95633635195918.050344441469861,5.499004643963417h-60.941230121949047c1.693292312029371,5.817443468897181,5.867787910369771,9.321293804192464,17.18423602322946,9.840905742819814,13.747409283810157.62050547378476,27.662428720330354.888599857245936,41.30925144729008-.502830458135577,8.768118904579751-.905381337735889,13.345063056410254,1.626166390058643,16.228612570130281,9.33807528467878,1.659729351040369,4.426013153517488,3.453608219910166,8.835142500438451,5.448660202479914,13.680283361842157l-.083805076349563-.06712592196709c.033562960979907.050344441475318.100586556839517.167610152711859.201173113699042.335424957627765.486151303740371,1.190257201686109.989186414080905,2.414077364355762,1.492119198320324,3.671460488007142.43590918838072,1.777199714479138.402346227400812,3.75536789045691-1.15679656680004,4.995969533623793-3.386584624049647.268299035660675-6.756387767619344.536598071317712-10.075846469700082.821473935269751-1.15679656680004-.100484230746588-1.307625239020126-.067125921965271-.787910974289844.050344441478046-12.875693233159836,1.056210009953247-25.365617067220228,2.062075578435724-37.822080266390003,3.084927279608564l-9.187348938559808.586533208395849c1.760315907899894,4.007090097832588,5.063095455589973,6.571996134407527,12.45646319917978,7.209078436479103,1.056210009949609.201173113699042,2.430961170940463.217954594190815,4.275184481290125.234736074680768,12.90905154192933.150828672223724,25.600250815789877-1.525682159313874,38.090276975949564-2.615250478047528,6.437846616579918-.570161032310352,9.924915471379791,1.039223877259246,10.159651546060559,8.31542823570453.301759670539468,9.488903956902504,1.508900678809368,18.944654257224101,2.36393757506994,28.936593324469868-48.987699707020511,7.024482151076882-96.516740850589485-2.7662838024753-146.158304340180621-3.872838253904774,2.3471560945909-9.690281722796499,4.090690521990837-18.994794046491734,6.957560881310201-27.830038873038575ZM471.366060883849968,891.974530061965197c7.812597777579867-26.589437229877149,8.49992219502019-25.734400333622034,37.067732253080067-20.067785536944939,7.14185018840999,1.408416448079151,14.350928624900007,2.548329208286304,21.576686215769769,3.537413296278828,11.702012859760544,2.464626458027851,23.722566870549599,3.872633601697089,35.659315805000006,4.979392705328792,11.282987477969982,1.056005357757385,15.910071419079941-1.67651083153396,18.44161914687993-6.924202572525246l-32.826008406659639-4.526497384269533c-20.101450824030508-3.101504107897199-40.320167359300285-6.236571176777943-61.025035198309524-9.438764167625777,2.91711247468993-8.416117118656985,4.073909041489969-14.501859623218479,7.125171034019331-19.413921754385228,1.710073792520234-2.766283802468024,6.571893808310051-5.063095455587245,9.992041393340514-5.029532494600062,12.724659908739341.117265711236541,25.432640663078928,1.559040468093372,38.157300571820087,2.045294097941223,28.266050387509495,1.072991490447748,56.531998448929698,2.16276446138545,84.814727990829851,2.581892169268031,7.158733995009243.100484230748407,11.970311895429404,1.693292312025733,15.541288152679044,8.181176391775807,8.952510537780654,16.279059337706713,20.73843080000006,31.149702227328817,24.84590280248085,50.899048939343629-65.283335873010401,24.84580047637246-129.32607010287029,16.547153721159702-193.335241371730262.670440610847436-5.683396277169777-1.810558023267731-6.337260059740402-5.230500956097785-6.035500389200024-7.493954300432961ZM599.233574749369836,953.368553178890579c-1.140015086300082.150624020019677-2.280030172619263.301657344441992-3.420045258929349.452486016665716-.838255415770618.100484230748407-1.659831677140573.23473607467713-2.481305612420329.368987918607672l-15.306552078000095,2.145778328693268c2.313593133610084,5.012751014110108,6.571996134409346,7.745471855601863,16.664521758500086,7.075031244750789.184493959300198,0,.368885592509287.016781480489954.553277225720194,0,19.346898158510157-1.961591347690046,38.593312086279184-4.727875150163527,57.889968129419685-7.158733995009243,1.257383123659565-.167814804912268,2.514766247310035-.318643477135993,3.822391486330162-.452690668862488,1.005865568479749-.117470363444227,2.045396424049613-.217954594188996,3.135067068889839-.335220305429175,1.072991490439563-.117470363444227,2.196225096259695-.234940726881177,3.369803143560603-.352206438117719h.0670235958587c.570058706211057-.066921269766681,1.15679656680004-.134047191733771,1.760418233991004-.184391633201813,1.860902464739411-.20117311370268,3.889415082189771-.402346227394446,6.135984619939336-.637082302075214-4.358887231549488,11.886404492966903-7.141952514519289,22.347815709568749-11.936748934439493,31.786579877196345-2.648915765140373,5.180361166831062-5.616270355209963,10.226675141924716-8.818463346050521,15.138941925290965,0,0-2.950675435679841,4.526702036469942-7.812495451469658,9.271154014920285-4.861922341900026,4.744451978450343-11.634989263900025,9.706858551089681-19.279874562649638,10.629021369310067-7.426930704570623.301657344440173-14.853963735240541.368783266409991-22.297675920300208.43590918837981-2.715939360999982-.100688882949726-7.477172819940279-.503035110339624-9.086660055610082-.419127707889857-11.333229593350552.569956380109943-15.457380750230186,3.973322484660457-17.083649466389943,9.539248398379641l19.933738345219354-.150828672220086c10.712928771770748.150828672220086,21.207902949360687-.016781480489954,30.747253673830528-.016781480489954-10.069092947060199,13.353863101060597-20.329433376070483,26.973057780870477-30.641550811949855,40.662857470060771-5.515274493959623,5.598158635399159-23.657692122810658,21.209744819169828-41.650099688239607,5.705089410489563-2.184969225210807-2.515175551709945-4.461827288710992-4.994639294320223-6.795783316330926-7.457526208640047-.021386155020082-.029060612559988-.043079288339868-.052902593989529-.064465443349036-.082065532649722,0,0-.007879109751229.004400022329719-.008390740250434.004707000630333-6.675550148180264-7.040138044460036-13.766748916809775-13.977643010061001-20.273665651270676-21.414090041980671-8.885486941910131-10.1429723916699-16.446567164309272-21.442639024039636-24.359649172629361-32.792650097880141-.016781480489954-.033358308779498-.033562960979907-.050139789269451-.050344441469861-.083702750259363-.553174899619989-.771334146000299-1.089670644840226-1.542463639800189-1.626166390060462-2.313593133610084-3.587757737749598-6.236571176769758,3.135067068880744-6.957560881300196,8.969292018269698-6.571791482199842,12.272071565970691,1.307522912919922,24.158578385030523,4.744451978449433,36.112108799970883,5.49879999175937v-.016781480489954c8.432796273039457.922162818220386,13.730627803310199-2.849986552730115,15.859726977609171-7.862737566839314l-23.169391970939614-2.950675435680751c-13.428765806669617-1.944809867197364-26.874415419939396-3.705228101188368-40.286502072209259-5.716959238146956-13.311500095440351-2.011731136966773-15.105378964310148-4.15771411786227-17.586582250631182-20.118129978422076,9.639937281330276,1.542463639805646,18.894207489650398,3.504054987492054,28.24916658093025,4.459576114499214,11.08171203817983,1.106554451427655,22.163526402460775,2.14577832868963,33.262019921130559,3.067941146913654v-.016781480491773c1.005865568479749.11747036343877,2.011833463059702.234736074680768,2.984136070559543.251517555170722,11.350011073840506.217954594190815,15.692219151000245-2.833409724436933,17.703950287970656-8.214944004957943l-23.320220643170614-1.408211795876923c-.922060492130186-.100484230744769-1.844223310349662-.201173113691766-2.783065282969801-.301861996638763-18.257125187580641-2.062075578437543-36.380203183420235-5.197142647324654-54.620649216610218-7.477172819943007-6.622238249789916-.821473935280665-9.958478432369702-4.006885445638545-11.299666632369735-10.377503814150259-3.269216586710172-15.541288152677225-6.236673502879967-31.032231863882771-2.363937575079945-47.948373503657422,68.284253424059898,17.100533272980101,136.048894909499722,26.472171518645155,204.852862598289903,1.5592451202956,0,7.611220011676778.251517555169812,14.719814217407475.083702750259363,21.610249176746947-.921958166019976,5.867787910374318-4.526497384259528,13.646822726960636-16.765005989249403,15.625195555141545-18.307469629049592,2.598468997555756-36.682065180069912,4.878499170181385-55.023097770110326,7.292576534538057v-.016781480492682l-1.944707541099888.268503687862903Z"/>
    </g>
  </g>
  <path class="cls-1" d="M838.701329878289471,913.381308091500614l-59.631498576729427-109.904814057895237h58.192155657809963l26.995962393510126,56.033141279446681,26.876323915599642-56.033141279446681h58.312407666390754l-59.752364115960518,109.904814057895237v83.508884645931175h-50.99298694062054v-83.508884645931175Z"/>
  <path class="cls-1" d="M1050.706234519429927,974.333124639892048h-72.230350597150391l-9.838577599199198,22.557068097539741h-56.152166226709596l89.86751636444933-193.464621748273203h24.356553511510356l89.987768373010113,193.464621748273203h-56.272418235270379l-9.718325590640234-22.557068097539741ZM1034.388159662499675,936.778913187724356l-19.797407206970092-45.834421185189967-19.917045684880577,45.834421185189967h39.714452891850669Z"/>
  <path class="cls-1" d="M1343.336429723440233,802.933519403068203v193.956673334363586h-51.353129435679875v-76.66924489313169l-52.072800895140972,73.429803029586765h-.360142495050241l-52.193052903709031-73.429803029586765v76.66924489313169h-51.352515905020482v-193.956673334363586h20.636717144339855l83.029103672961355,112.488391650203994,83.028490142300143-112.488391650203994h20.637330674999248Z"/>
</svg>