<?xml version="1.0" encoding="UTF-8"?>
<svg id="Layer_1" data-name="Layer 1" xmlns="http://www.w3.org/2000/svg" viewBox="0 0 1800 1800">
  <defs>
    <style>
      .cls-1 {
        fill: #9f4e2a;
      }

      .cls-1, .cls-2, .cls-3 {
        stroke-width: 0px;
      }

      .cls-2 {
        fill: none;
      }

      .cls-3 {
        fill: #f0e9c5;
      }
    </style>
  </defs>
  <g>
    <g>
      <path class="cls-3" d="M415.563691284356537,840.384913149803651c-.715782965804465-8.364621235602499-1.726325288395856-16.280379050809643-1.978939453804742-24.223891016439666-.196506237857648-6.091179407884738-3.115660367658165-7.438454956728492-8.505019545910727-6.961152098245293-10.455862205458288.912117881742233-21.08013385452432,2.315587019095801-31.886777683360378,2.189322766868827-1.543867447662706-.014048397125407-2.694722419608297-.028096794251724-3.578914829015048-.196506237860376-6.189261204897775-.533325125070405-8.954139949176351-2.680502700562101-10.427765411208384-6.034985819376743l7.691069122140107-.491008611772486c10.427765411212022-.856266937071268,20.883541955708097-1.698314155099069,31.662260312208673-2.58250656450582-.435072006139308-.098338779891492-.308807753912333-.126264252226974.659589377291923-.042145191384407,2.778841480449955-.238480107322175,5.599828152281589-.463083139431546,8.434863221238629-.687686171544556,1.305216018424289-1.038553455889996,1.333312812674194-2.694551097692965.968397131210622-4.182310617799885-.421023609013901-1.052601853015403-.842132878986376-2.077106911775445-1.249108090869413-3.073515176281944-.084204721802962-.140483971269532-.14031264935511-.238651429238416-.168409443610471-.280796620620094l.070156324675736.056193588507085c-1.670131699884223-4.056046365577458-3.171853956165251-7.747091388728222-4.561274696387045-11.452270469966606-2.413925798988203-6.455923767432068-6.245454793408499-8.575175870587373-13.585570970248227-7.81724771340123-11.424259336668001,1.164817708112423-23.073036044496803.940385997913836-34.581500102969585.420937948052597-9.473416677122259-.434986345178913-12.968041123376679-3.368188872112114-14.385558657853835-8.238185661459283h51.016154539302079c.547373522190355-1.291424604169151.336818887210939-3.073686498197276-.042145191381678-4.603419887773271-6.30156272095337-4.79992612562819-12.336462879372448-10.076983787825156-19.185399122526178-13.838356457566988-8.533116340162451-4.687538948620386-17.403051567540388-4.757609612340275-25.065938234467467,3.087734895321773-8.841838433120756,9.052307407148874-17.936376692608974,17.880183104100979-26.918527775085749,26.792177861897471-.477217197519167.547373522198541-2.961384982137133,3.550818034759686-.856181276112693,5.698166932168533l40.055064003024199,3.943659188560559c-1.880686334872735,4.39277959183255-5.641973343655991,6.778608596559025-15.101341623653752,6.259503190537544-8.350658499432029-.463254461357792-16.743376529287161-1.0947470443989-25.023878704045273-2.245687677303067-.617529846872458-.070241985633402-1.235059693746734-.126264252223336-1.838541143491966-.182286518811452-6.624333211037992-.729831362930781-9.178657320335333,1.108624119603519-10.02079019931989,8.54690775441486l25.655456948044957,1.47371112298697c-1.71227689126772,4.476984313627327-5.36126238399811,7.017345686755107-14.848727458245776,6.862984640276409-2.596383639715896-.056022266590844-5.192852940392186-.11221585509611-7.789236580108991-.196506237856738-.154361046477788.014048397125407-.308807753915971.014048397125407-.477217197520986.028096794253543-7.073453614307255.29467369582926-9.697934048278512,3.396285666363838-10.666331179486406,5.431418708671117-2.399963062816823,7.396309765352271-3.859540127717082,15.185460684500868-5.82443118439096,23.297553415648508,41.556786259300679.926337600788429,81.345102038829282,9.122549392787732,122.354514775938696,3.242095941804109Z"/>
      <path class="cls-3" d="M428.040466813079547,938.361175862823075c10.245307570477053-1.656168963718301,13.262800480163605-8.168286319657454,14.034605712555276-13.080428300390849.140483971266804-5.768237595880237-.070070663716251-11.719104354409865-.070070663716251-18.090737739085853-57.598342558955665,20.855530822414039-114.326626766591289,13.010186314755629-171.489897319407646-1.305301679380136-3.242010280839168,14.161126947657067-.75784249622393,27.129168071030108,1.978939453803832,40.13935438578028,1.122758177692049,5.333079928785082,3.915648055267411,7.999705554139837,9.459368279995033,8.687391725690759,15.269751067259676,1.908697468163155,30.441249015589165,4.533177902136231,45.724962819017492,6.25941752957533.78593929048202.084290382758809,1.557915844790841.168580765518527,2.329806738141087.252699826361095l19.522218009738026,1.178866105242378c-1.684094436055602,4.505081107881779-5.319117192618251,7.059490878136785-14.820630663992233,6.877033037401816-.813950423776987-.014048397126317-1.656083302762454-.112215855100658-2.498130520789346-.210554634984874v.014048397124498c-9.290958836389109-.771976554307912-18.567954936611386-1.641949244673015-27.844865375875997-2.568286845461444-7.831381771484303-.799902026647032-15.578473160217072-2.442022593235379-23.648420699987582-3.733275875488289,2.077106911778174,13.361053599086517,3.578829168054654,15.157535212158109,14.722377545065683,16.841629648219168,11.227753098809444,1.684094436050145,22.483602991875159,3.157805559034387,33.725318826855073,4.785877728500054l19.395953757509233,2.470119387489831c-1.782347554981243,4.19635901492984-6.21735799914677,7.354164573968774-13.276763216328618,6.58218801966359v.014048397121769c-10.006741802191755-.631492583042018-19.95737567683318-3.508672843377099-30.230780041560138-4.603248565853391-4.884045186479852-.322941812000863-10.511970133011346.280625298702944-7.508525620448381,5.501489372387368.449120403265624.645540980171063.898240806533067,1.291081960340307,1.361323945970071,1.936794262423064.014048397127226.028096794256271.028096794254452.042145191381678.042145191380769.07007066371807,6.624333211037992,9.501513471373073,12.953992726246724,18.960881751372654,20.39236202201937,27.451938561112911,7.25257067766961,8.288639965780021,15.395073048944141,15.828517496879613,22.405394537136999,23.822826410660127,7.96998120167882,7.894599558560003,17.161573326682628,7.777758011719925,25.99570227357799,2.923608499619149.423593437762975-.238308785409572.847358197433095-.476703231769534,1.257845508597711-.715012017179106,1.257674186684199-.741395592270237,2.475601688814095-1.509174759630696,3.693786173810622-2.316871933469884.397124201706902-.264692360500703.794162742459775-.529470381950887,1.191458266082918-.807525851910214.321999541460173-.229057401939826.639116408308837-.454431382670009.959060086778663-.67989102437059,9.336701788009123-12.395311957579906,18.627746285356807-24.728862364379893,27.736589924844338-36.809198979060056-7.985742817968458,0-16.771473323540704.140312649350562-25.739661669847919.014048397129955l-16.687268601737742.126264252220608c1.361409606931375-4.659442154360477,4.813888861801388-7.5085256204502,14.301353936049054-7.985657157009882,1.34736120980233-.070241985630673,5.333165589746386.266576901579356,7.606778739381298.350867284339984,6.231406396275815-.056193588499809,12.448850056386618-.112387177010532,18.666208055538846-.364915681469938,6.39981583988083-.771976554300636,12.069800316837245-4.926190377851526,16.13989507954102-8.897946360666538,4.07000910174429-3.971755982814102,6.540128489237759-7.761225446812205,6.540128489237759-7.761225446812205,2.680674022476524-4.112239954083634,5.164756146137734-8.336695763263378,7.382261368216859-12.673367427546509,4.013901174198509-7.901538096162767,6.343707912340506-16.659171807481471,9.992693405065438-26.60972002116614-1.880686334869097.196506237860376-3.578829168055563.364915681462662-5.136659351882372.533325125073134-.505313991774528.042145191374402-.996493925465984.098338779883306-1.473711122983332.154361046475969h-.056107927553057c-.982445528336939.098167457968884-1.922745865293109.196506237854919-2.820986671827995.294845017745502-.912203542706266.098167457971613-1.782433215945275.18228651881509-2.624480433973986.280625298706582-1.09466138343214.112215855095201-2.147263236449362.238480107322175-3.199865089459308.378964078588069-16.153943476669156,2.034961720393767-32.265827422915208,4.350720061405809-48.461830430006557,5.992840627998703-.15436104647415.014048397126317-.308722092957396,0-.463168800390122,0-8.44882595740728.561250597405888-12.013692389292373-1.726410949355341-13.950486651712708-5.922769964278814l12.813680076895253-1.796310291155351c.687686171550013-.11238717701417,1.375458004052234-.224774354025612,2.077192572727654-.308893414870909.954348734088853-.126264252226974,1.90869746817225-.252699826367461,2.863046202254736-.378792756675466l1.627986508504364-.22477435402925v.014048397127226c15.353955789066276-2.02091332326745,30.736008372379729-3.929610791437881,46.061867367188825-6.104885161181301Z"/>
      <path class="cls-3" d="M278.360534711127002,899.555048628757504c53.584441384763522,13.290982935375723,107.196979563777859,20.2380866364947,161.848071198674916-.561250597403159-3.438516518699544-16.532907555264501-13.304945671538007-28.981671950689815-20.799422894855525-42.609473773280115-2.989396115433919-5.431247386756695-7.017345686759654-6.764645860388555-13.010186314755629-6.848764921233851-23.676517494239306-.350867284336346-47.338986591357752-1.263156487998458-71.001541349429317-2.161397294533344-10.652282782360999-.407060872843431-21.290602828552437-1.614023772336623-31.942885610913436-1.712191230306416-2.863131863210583-.028096794257181-6.933140964953964,1.894649071039566-8.364706896560165,4.21040741204979-2.554324109290064,4.112068632168302-3.522721240500687,9.206668453633029-5.964743833740613,16.252110934641678,17.332809581902438,2.680674022478343,34.258643951925478,5.305154456445962,51.086310863970539,7.901538096162767l27.479864033455669,3.789298142086409c-2.119252103158033,4.393036574700091-5.992754967042856,6.680526799544168-15.438160510867419,5.79650571205093-9.992693405066348-.926508922706489-20.055543134809341-2.10520370602535-29.851730302015312-4.168433542587991-6.048948555544484-.827998820902394-12.083934374920318-1.782261894025396-18.062640944830491-2.961299321184015-23.915168923484089-4.743732537126562-24.490553578980325-5.459515502925569-31.030767729176659,16.799484456835671-.25261416540161,1.894820392958536.294759356795112,4.75778093425015,5.052540291043442,6.273465926701647Z"/>
    </g>
    <g>
      <path class="cls-2" d="M278.360538200389783,899.555048628757504c53.584441384758975,13.290982935375723,107.196979563774221,20.2380866364947,161.848071198674006-.561250597403159-3.438516518701363-16.532907555264501-13.304945671540736-28.981671950689815-20.799422894860072-42.609473773280115-2.989396115436648-5.431247386756695-7.017345686758745-6.764645860388555-13.010186314760176-6.848764921233851-23.676517494234758-.350867284336346-47.338986591354114-1.263156487998458-71.00154134942386-2.161397294533344-10.652282782360999-.407060872843431-21.290602828554256-1.614023772336623-31.942885610912526-1.712191230306416-2.863131863208764-.028096794257181-6.933140964954873,1.894649071039566-8.364706896557436,4.21040741204979-2.554324109296431,4.112068632168302-3.522721240507053,9.206668453633029-5.96474383374607,16.252110934641678,17.332809581904257,2.680674022478343,34.258643951927297,5.305154456445962,51.086310863972358,7.901538096162767l27.479864033451122,3.789298142086409c-2.119252103152576,4.393036574700091-5.992754967037399,6.680526799544168-15.4381605108656,5.79650571205093-9.992693405065438-.926508922706489-20.055543134806612-2.10520370602535-29.851730302008946-4.168433542587991-6.048948555547213-.827998820902394-12.083934374926685-1.782261894025396-18.062640944835948-2.961299321184015-23.91516892348136-4.743732537126562-24.490553578974868-5.459515502925569-31.030767729170293,16.799484456835671-.252614165406158,1.894820392958536.294759356790564,4.75778093425015,5.052540291043442,6.273465926701647Z"/>
      <path class="cls-2" d="M415.563694773613861,840.384913149803651c-.715782965804465-8.364621235602499-1.726325288394037-16.280379050809643-1.978939453800194-24.223891016439666-.196506237860376-6.091179407884738-3.115660367659984-7.438454956728492-8.505019545910727-6.961152098245293-10.455862205463745.912117881742233-21.080133854529777,2.315587019095801-31.886777683372202,2.189322766868827-1.543867447653611-.014048397125407-2.694722419599202-.028096794251724-3.578914829005043-.196506237860376-6.189261204904142-.533325125070405-8.95413994917817-2.680502700562101-10.427765411212931-6.034985819376743l7.691069122141016-.491008611772486c10.427765411205655-.856266937071268,20.883541955705368-1.698314155099069,31.662260312212311-2.58250656450582-.435072006140217-.098338779891492-.308807753916881-.126264252226974.659589377288285-.042145191384407,2.778841480449955-.238480107322175,5.599828152284317-.463083139431546,8.434863221238629-.687686171544556,1.305216018420651-1.038553455889996,1.333312812676013-2.694551097692965.968397131210622-4.182310617799885-.421023609013901-1.052601853015403-.842132878986376-2.077106911775445-1.249108090869413-3.073515176281944-.084204721803872-.140483971269532-.14031264935511-.238651429238416-.168409443606834-.280796620620094l.070156324673917.056193588507085c-1.670131699886042-4.056046365577458-3.17185395616616-7.747091388728222-4.561274696386135-11.452270469966606-2.413925798988203-6.455923767432068-6.245454793407589-8.575175870587373-13.585570970248227-7.81724771340123-11.42425933667073,1.164817708112423-23.073036044499531.940385997913836-34.581500102973223.420937948052597-9.47341667712044-.434986345178913-12.968041123373041-3.368188872112114-14.385558657847469-8.238185661459283h51.016154539292984c.54737352219945-1.291424604169151.336818887215486-3.073686498197276-.042145191375312-4.603419887773271-6.301562720957008-4.79992612562819-12.336462879376086-10.076983787825156-19.185399122527997-13.838356457566988-8.53311634016336-4.687538948620386-17.403051567542207-4.757609612340275-25.065938234466557,3.087734895321773-8.841838433120756,9.052307407148874-17.936376692608974,17.880183104100979-26.91852777508393,26.792177861897471-.477217197521895.547373522198541-2.961384982135314,3.550818034759686-.856181276111784,5.698166932168533l40.05506400302238,3.943659188560559c-1.880686334871825,4.39277959183255-5.641973343659629,6.778608596559025-15.101341623654662,6.259503190537544-8.35065849943112-.463254461357792-16.743376529286252-1.0947470443989-25.023878704045273-2.245687677303067-.61752984686882-.070241985633402-1.235059693743096-.126264252223336-1.838541143491057-.182286518811452-6.624333211038902-.729831362930781-9.178657320331695,1.108624119603519-10.020790199318071,8.54690775441486l25.655456948043138,1.47371112298697c-1.712276891266811,4.476984313627327-5.361262383995381,7.017345686755107-14.848727458245776,6.862984640276409-2.596383639715896-.056022266590844-5.192852940390367-.11221585509611-7.789236580108991-.196506237856738-.154361046478698.014048397125407-.308807753915971.014048397125407-.477217197520986.028096794253543-7.073453614304526.29467369582926-9.697934048278512,3.396285666363838-10.666331179483677,5.431418708671117-2.399963062819552,7.396309765352271-3.85954012772072,15.185460684500868-5.824431184396417,23.297553415648508,41.556786259306136.926337600788429,81.345102038830191,9.122549392787732,122.354514775939606,3.242095941804109Z"/>
      <path class="cls-2" d="M428.04047030233869,938.361175862823075c10.245307570471596-1.656168963718301,13.262800480159967-8.168286319657454,14.034605712558005-13.080428300390849.140483971261347-5.768237595880237-.070070663719889-11.719104354409865-.070070663719889-18.090737739085853-57.598342558954755,20.855530822414039-114.326626766587651,13.010186314755629-171.489897319405827-1.305301679380136-3.242010280842806,14.161126947657067-.75784249622393,27.129168071030108,1.978939453805651,40.13935438578028,1.122758177684773,5.333079928785082,3.915648055263773,7.999705554139837,9.459368279992304,8.687391725690759,15.269751067262405,1.908697468163155,30.441249015590074,4.533177902136231,45.72496281902022,6.25941752957533.785939290475653.084290382758809,1.557915844785384.168580765518527,2.329806738139268.252699826361095l19.522218009735298,1.178866105242378c-1.684094436056512,4.505081107881779-5.319117192617341,7.059490878136785-14.820630663993143,6.877033037401816-.81395042377153-.014048397126317-1.656083302760635-.112215855100658-2.498130520785708-.210554634984874v.014048397124498c-9.290958836390018-.771976554307912-18.567954936609567-1.641949244673015-27.84486537587145-2.568286845461444-7.831381771493398-.799902026647032-15.578473160219801-2.442022593235379-23.64842069999122-3.733275875488289,2.077106911774536,13.361053599086517,3.578829168053744,15.157535212158109,14.722377545063864,16.841629648219168,11.227753098808535,1.684094436050145,22.483602991875159,3.157805559034387,33.725318826855073,4.785877728500054l19.395953757511961,2.470119387489831c-1.782347554981243,4.19635901492984-6.217357999153137,7.354164573968774-13.276763216327709,6.58218801966359v.014048397121769c-10.006741802195393-.631492583042018-19.957375676837728-3.508672843377099-30.230780041567414-4.603248565853391-4.884045186472576-.322941812000863-10.511970133004979.280625298702944-7.508525620445653,5.501489372387368.449120403269262.645540980171063.898240806533067,1.291081960340307,1.361323945973709,1.936794262423064.014048397122679.028096794256271.028096794248086.042145191381678.042145191379859.07007066371807,6.624333211038902,9.501513471373073,12.953992726248543,18.960881751372654,20.392362022017551,27.451938561112911,5.447180324961664,6.225324468259714,11.383484720618981,12.032966104859952,16.971834304513322,17.92652568243011.000428304790148-.000256982870269.007024198565887-.003940404069908.007024198565887-.003940404069908.01790314023674.024413373049356.036063263351934.044372376289175.05396640359595.06870008838996,1.953840793082236,2.061773600269589,3.859882771546836,4.137424275759258,5.689001209650996,6.242970625619819,15.062108904843626,12.979519691759378,30.249796774255628-.089515701210075,34.866836754361429-4.775941057369891,8.632654373464902-11.460236939070455,17.221964302140805-22.86136781705045,25.651173900140748-34.040379830710663-7.985742817966639,0-16.771473323538885.140312649350562-25.739661669847919.014048397129955l-16.687268601736832.126264252220608c1.361409606927737-4.659442154360477,4.813888861801388-7.5085256204502,14.301353936046326-7.985657157009882,1.347361209805058-.070241985630673,5.333165589746386.266576901579356,7.60677873937766.350867284339984,6.231406396279453-.056193588499809,12.448850056390256-.112387177010532,18.666208055543393-.364915681469938,6.399815839882649-.771976554300636,12.069800316836336-4.926190377851526,16.13989507954102-8.897946360666538,4.070009101743381-3.971755982814102,6.54012848923503-7.761225446812205,6.54012848923503-7.761225446812205,2.680674022478343-4.112239954083634,5.164756146138643-8.336695763263378,7.382261368224135-12.673367427546509,4.013901174193052-7.901538096162767,6.34370791233232-16.659171807481471,9.992693405063619-26.60972002116614-1.880686334876373.196506237860376-3.578829168056473.364915681462662-5.13665935188601.533325125073134-.505313991773619.042145191374402-.996493925464165.098338779883306-1.473711122985151.154361046475969h-.05610792754851c-.982445528339667.098167457968884-1.922745865298566.196506237854919-2.820986671828905.294845017745502-.912203542706266.098167457971613-1.782433215948004.18228651881509-2.624480433973986.280625298706582-1.094661383437597.112215855095201-2.147263236445724.238480107322175-3.199865089460218.378964078588069-16.153943476667337,2.034961720393767-32.265827422914299,4.350720061405809-48.4618304300011,5.992840627998703-.154361046483245.014048397126317-.308722092963762,0-.463168800394669,0-8.448825957408189.561250597405888-12.013692389290554-1.726410949355341-13.950486651715437-5.922769964278814l12.8136800768998-1.796310291155351c.687686171543646-.11238717701417,1.375458004051325-.224774354025612,2.077192572726744-.308893414870909.954348734081577-.126264252226974,1.90869746817134-.252699826367461,2.863046202251098-.378792756675466l1.627986508505273-.22477435402925v.014048397127226c15.353955789063548-2.02091332326745,30.736008372385186-3.929610791437881,46.061867367191553-6.104885161181301Z"/>
      <path class="cls-1" d="M431.26843218605427,861.5772628594259c-6.736634727096316-10.034838596447116-8.757633711318704-20.195941445117569-9.136512128952745-31.592103987531118-1.052601853014494-32.293838556210176-13.234703685913701-59.731471737321954-36.448138040714184-82.327461906214921-15.592521557344298-15.171412287370913-24.153649030800807-16.125846682413794-41.977724207356005-3.999852777066735-.238651429241145.168409443605015-.505313991776347.308893414874547-.729831362930781.491179933689637-32.139477509730568,26.216878867366177-55.984404447576708,56.980898373043601-57.079065831010666,100.923427976117637-.154361046481426,6.062911291712226-2.820986671831633,12.729389694133715-6.175298468730034,17.922328295482657-14.048739770642896,21.711626437567247-22.427409403371712,45.191809015863328-17.108292210750733,70.762975581146748,3.438516518702272,16.560833027599983,11.017284124779508,32.34986082280102,17.711773660495965,48.082866351411212,2.863131863209674,6.694575196674123,3.985890040902632,12.420496279262807,1.642120566591984,19.494035554528637-2.203456824956447,6.638381608160671-3.452564915827679,13.838356457570626-3.691130684113887,20.827605350070371-.238651429236597,6.638381608169766,1.698142833183738,13.164376039319905,9.754041975827022,18.539772481400178-2.329721077184331-15.003002843760441-4.771743670420619-28.44834682562032,3.073600837237791-41.458533140370491,22.747524403751413,37.441205527849888,40.881949231468752,53.530132337330542,52.847671484229977,60.395858128270447,3.814396802798001,2.548841807970348,8.239470575827909,4.518872522129641,13.07134823882916,4.888756539169663,2.000611676197877.252785487329675,3.06726192633414.075381643120636,3.11634565532222.063560430899997.485954615249284-.027325845630003.99212521660138-.106476570899758,1.509003437719002-.214066734270091,2.915556369558544-.417425848770108,5.943756899008804-1.473796783940088,9.044426599007238-3.356967286599684l-.005910606110774.006681554729767c4.653017582509165-1.746284291619304,11.52285509943431-9.726030842519322,16.997960896732366-16.908445195519562,8.44051684446822-9.18456792643974,16.915726376964813-19.952835646060521,23.661955131365175-28.98501272806061,1.330571662013426-1.472854513399398,2.649407772775703-2.955817019859751,3.936206685207253-4.466105371949197,2.914528438061097-3.418214871629971,5.183173252131382-7.379777200440003,7.454302233978524-11.341339529239121,1.504292085022826-2.168335832140656,2.352078587242431-3.42960777906319,2.353106518738059-3.43114967630936,1.465830314837149-1.53427342035684,2.844800418177329-2.069483086505898,2.767619894938434,1.481677592089-1.431480270648535,7.999876876048802-5.768237595882965,31.830755416768625-6.427826973177616,32.293838556209266.028011133296786.01404839711995.084204721803872.01404839711995.140312649352381.01404839711995h.084204721804781c1.094747044389806.02792547234003,6.315611118076959-.280796620620094,9.44531988286235-8.420814824100489.07024198563613-.168409443609562.140398310311866-.364915681469938.210554634986693-.54737352219945,1.052601853014494-2.961299321180377,1.838541143497423-6.877033037410001,2.077106911771807-12.111945508219833.463168800398307-5.978792230870567.491265594647302-12.013606728331069.912289203664841-18.006447356327044.252614165408886-3.747324272616424-.140312649350562-7.985828478927033,1.459577064902078-11.115537243713334,20.58903958179144-40.223473446627395,21.065999796440337-79.815282988296531-4.491118371717675-117.905455934644124ZM299.033611182070672,813.845263792351034c.968397131205165-2.03513304230728,3.592877565179151-5.136745012841857,10.666331179483677-5.431418708671117.168409443605015-.014048397128136.322856151042288-.014048397128136.477217197520986-.028096794253543,2.596383639718624.084290382760628,5.192852940393095.140483971265894,7.789236580108991.196506237856738,9.487465074250395.154361046478698,13.136450566978965-2.386000326649082,14.848727458245776-6.862984640276409l-25.655456948043138-1.47371112298697c.842132878986376-7.438283634811341,3.396456988279169-9.276739117345642,10.020790199318071-8.54690775441486.60348144974796.056022266588116,1.221011296622237.11204453317805,1.838541143491057.182286518811452,8.280502174759022,1.150940632904167,16.673220204614154,1.782433215945275,25.023878704045273,2.245687677303067,9.459368279995033.519105406021481,13.220655288782837-1.866723598704993,15.101341623654662-6.259503190537544l-40.05506400302238-3.943659188560559c-2.105203706023531-2.147348897408847.378964078589888-5.150793409969992.856181276111784-5.698166932168533,8.982151082474957-8.911994757796492,18.076689341963174-17.739870454748598,26.91852777508393-26.792177861897471,7.662886666924351-7.845344507662048,16.532821894303197-7.775273843942159,25.065938234466557-3.087734895321773,6.848936243151911,3.761372669741831,12.883836401570989,9.038430331938798,19.185399122527997,13.838356457566988.378964078590798,1.529733389575995.589518713574762,3.311995283604119.042145191375312,4.603419887773271h-51.016154539292984c1.417517534474428,4.869996789347169,4.912141980727029,7.80319931628037,14.385558657847469,8.238185661459283,11.508464058473692.519448049861239,23.157240766302493.743879760059826,34.581500102973223-.420937948052597,7.340116176840638-.757928157186143,11.171645171260025,1.361323945969161,13.585570970248227,7.81724771340123,1.389420740219975,3.705179081238384,2.891142996500093,7.396224104389148,4.561274696386135,11.452270469966606l-.070156324673917-.056193588507085c.028096794251724.042145191381678.084204721802962.140312649350562.168409443606834.280796620620094.406975211883037.996408264506499.828084481855512,2.020913323266541,1.249108090869413,3.073515176281944.364915681465391,1.48775952010692.336818887210029,3.143757161909889-.968397131210622,4.182310617799885-2.835035068954312.224603032113009-5.656021740788674.449206064222381-8.434863221238629.687686171544556-.968397131205165-.084119060842568-1.094661383428502-.056193588507085-.659589377288285.042145191384407-10.778718356506943.884192409406751-21.234494901006656,1.726239627434552-31.662260312212311,2.58250656450582l-7.691069122141016.491008611772486c1.473625462034761,3.354483118814642,4.238504206308789,5.501660694306338,10.427765411212931,6.034985819376743.884192409405841.168409443608653,2.035047381351433.182457840734969,3.578914829005043.196506237860376,10.806643828842425.126264252226974,21.430915477908457-1.277204885126594,31.886777683372202-2.189322766868827,5.389359178250743-.477302858483199,8.308513308050351.869972690360555,8.505019545910727,6.961152098245293.252614165406158,7.943511965630023,1.26315648799573,15.859269780837167,1.978939453800194,24.223891016439666-41.009412737109415,5.880453450983623-80.79772851663347-2.31575834101568-122.354514775939606-3.242095941804109,1.964891056675697-8.112092731147641,3.424468121576865-15.901243650296237,5.824431184396417-23.297553415648508ZM273.307997909346341,893.281582702055857c6.540214150195425-22.25899995976124,7.115598805688933-21.543216993962233,31.030767729170293-16.799484456835671,5.978706569909264,1.179037427158619,12.013692389288735,2.133300500281621,18.062640944835948,2.961299321184015,9.796187167202334,2.063229836562641,19.859036896943508,3.241924619881502,29.851730302008946,4.168433542587991,9.445405543828201.884021087493238,13.318908407713025-1.403469137350839,15.4381605108656-5.79650571205093l-27.479864033451122-3.789298142086409c-16.827666912045061-2.596383639716805-33.7535012820681-5.220864073684425-51.086310863972358-7.901538096162767,2.442022593239017-7.045442481008649,3.410419724449639-12.140042302473375,5.96474383374607-16.252110934641678,1.431565931602563-2.315758341010223,5.501575033348672-4.23850420630697,8.364706896557436-4.21040741204979,10.65228278235827.098167457969794,21.290602828551528,1.305130357462986,31.942885610912526,1.712191230306416,23.662554758069746.898240806534886,47.325023855189102,1.810530010196999,71.00154134942386,2.161397294533344,5.992840628001431.084119060845296,10.020790199323528,1.417517534477156,13.010186314760176,6.848764921233851,7.494477223319336,13.6278018225903,17.360906376158709,26.076566218015614,20.799422894860072,42.609473773280115-54.651091634899785,20.799337233897859-108.263629813915031,13.852233532778882-161.848071198674006.561250597403159-4.757780934252878-1.515684992451497-5.3051544564496-4.378645533743111-5.052540291043442-6.273465926701647ZM380.350616426641864,944.6767869809064c-.954348734079758.126092930308005-1.908697468169521.252528504448492-2.863046202251098.378792756675466-.70173456867542.084119060845296-1.389506401183098.196506237856738-2.077192572726744.308893414870909l-12.8136800768998,1.796310291155351c1.936794262424883,4.196359014923473,5.501660694307247,6.484020561684702,13.950486651715437,5.922769964278814.154446707430907,0,.308807753911424.014048397126317.463168800394669,0,16.196003007086802-1.642120566592894,32.307886953333764-3.957878907604936,48.4618304300011-5.992840627998703,1.052601853014494-.140483971265894,2.105203706022621-.266748223492868,3.199865089460218-.378964078588069.842047218025982-.098338779891492,1.71227689126772-.182457840734969,2.624480433973986-.280625298706582.898240806530339-.098338779890582,1.838541143489238-.196677559776617,2.820986671828905-.294845017745502h.05610792754851c.477217197520986-.056022266592663.968397131211532-.112215855101567,1.473711122985151-.154361046475969,1.557830183829537-.168409443610471,3.255973017009637-.336818887212758,5.13665935188601-.533325125073134-3.648985492731299,9.950548213684669-5.978792230870567,18.708181925003373-9.992693405063619,26.60972002116614-2.217505222085492,4.336671664283131-4.701587345745793,8.561127473462875-7.382261368224135,12.673367427546509,0,0-2.47011938749165,3.789469463998103-6.54012848923503,7.761225446812205-4.070094762704684,3.971755982815012-9.740079239658371,8.125969806365902-16.13989507954102,8.897946360666538-6.217357999153137.252528504459406-12.43480165926394.308722092970129-18.666208055543393.364915681469938-2.273613149631274-.084290382760628-6.259417529572602-.421109269970657-7.60677873937766-.350867284339984-9.487465074244938.477131536559682-12.939944329118589,3.326215002649406-14.301353936046326,7.985657157009882l16.687268601736832-.126264252220608c8.968188346309034.126264252220608,17.753918851881281-.014048397129955,25.739661669847919-.014048397129955-8.429209597999943,11.179012013660213-17.018519526675846,22.580142891640207-25.651173900140748,34.040379830710663-4.617039980105801,4.686425356159816-19.804727849517803,17.75546074912927-34.866836754361429,4.775941057369891-1.82911843810416-2.10554634986056-3.73516041656876-4.18119702535023-5.689001209650996-6.242970625619819-.017903140244016-.024327712100785-.03606326335921-.044286715340604-.05396640359595-.06870008838996,0,0-.006595893775739.003683421199639-.007024198565887.003940404069908-5.588349583894342-5.893559577570159-11.524653979551658-11.701201214170396-16.971834304513322-17.92652568243011-7.438369295769007-8.491056809740257-13.768028810978649-17.950425089739838-20.392362022017551-27.451938561112911-.014048397131774-.027925472336392-.028096794257181-.041973869461799-.042145191379859-.07007066371807-.463083139440641-.645712302082757-.912203542704447-1.291253282252001-1.361323945973709-1.936794262423064-3.003444512559327-5.220864073684425,2.624480433973076-5.824431184388231,7.508525620445653-5.501489372387368,10.273404364729686,1.094575722476293,20.224038239372021,3.971755982811374,30.230780041567414,4.603248565853391v-.014048397121769c7.059405217174572.771976554305184,11.494415661346466-2.38582900473375,13.276763216327709-6.58218801966359l-19.395953757511961-2.470119387489831c-11.241715834979914-1.628072169465668-22.497565728046538-3.101783292449909-33.725318826855073-4.785877728500054-11.14354837701012-1.684094436061059-12.645270633289329-3.480576049132651-14.722377545063864-16.841629648219168,8.06994753977142,1.29125328225291,15.817038928497823,2.933373848841256,23.64842069999122,3.733275875488289,9.276910439261883.926337600788429,18.553906539481432,1.796310291153532,27.84486537587145,2.568286845461444v-.014048397124498c.842047218025073.098338779884216,1.684180097014178.196506237858557,2.498130520785708.210554634984874,9.501513471375802.182457840734969,13.136536227936631-2.371951929520037,14.820630663993143-6.877033037401816l-19.522218009735298-1.178866105242378c-.771890893353884-.084119060842568-1.543867447663615-.168409443602286-2.329806738139268-.252699826361095-15.283713803430146-1.726239627439099-30.455211751757815-4.350720061412176-45.72496281902022-6.25941752957533-5.543720224728531-.687686171550922-8.336610102307532-3.354311796905677-9.459368279992304-8.687391725690759-2.736781950029581-13.010186314750172-5.220949734648457-25.978227438123213-1.978939453805651-40.13935438578028,57.163270552818176,14.315487994135765,113.891554760451072,22.160832501794175,171.489897319405827,1.305301679380136,0,6.371633384675988.210554634981236,12.322500143205616.070070663719889,18.090737739085853-.771805232398037,4.912141980733395-3.789298142086409,11.424259336672549-14.034605712558005,13.080428300390849-15.325858994806367,2.17527436974342-30.707911578128005,4.08397183791385-46.061867367191553,6.104885161181301v-.014048397127226l-1.627986508505273.22477435402925Z"/>
    </g>
  </g>
  <g>
    <path class="cls-1" d="M580.817918750332865,911.201987228807411l-49.919729889153132-92.005379073738368h48.714802771015457l22.599317188845816,46.907412093814855,22.499163400252655-46.907412093814855h48.815470168779939l-50.020910896086207,92.005379073738368v69.908371655370502h-42.688112743654528v-69.908371655370502Z"/>
    <path class="cls-1" d="M758.295054617420647,962.22700405667274h-60.466694241617006l-8.236236686444499,18.883354827505173h-47.007052273233057l75.231417116725424-161.956380290408561h20.389770529757698l75.332084514490816,161.956380290408561h-47.107719670995721l-8.135569288683655-18.883354827505173ZM744.634591462681783,930.788986622314042l-16.573140770657119-38.369686823246411-16.673294559246642,38.369686823246411h33.246435329903761Z"/>
    <path class="cls-1" d="M1003.266599030240286,818.742064037614909v162.368294846563003h-42.989601327778473v-64.18265660295674l-43.592064886843218,61.470800173396128h-.301488584118488l-43.692732284609519-61.470800173396128v64.18265660295674h-42.989087718601695v-162.368294846563003h17.275758118315025l69.506729282658853,94.168187298147132,69.506215673485713-94.168187298147132h17.276271727491803Z"/>
    <path class="cls-1" d="M1228.146266233210554,819.196608155069043v161.91375072910887h-42.889447539190769v-60.968490402921816h-48.11182560277939v60.968490402921816h-42.990114936940699v-161.91375072910887h42.990114936940699v60.768696434907724h48.11182560277939v-60.768696434907724h42.889447539190769Z"/>
    <path class="cls-1" d="M1254.85497040934024,918.043261403379802v-98.846653248310758h43.291089911899689v98.745985850547186c0,13.459641968383039,11.551070284240268,22.399523220831725,23.804757916150265,22.399523220831725,12.154047452479972,0,24.006092711680139-9.140188829629551,24.006092711680139-22.399523220831725v-98.745985850547186h43.291089911889685v98.846653248310758c0,37.163732486771551-30.133450136800093,63.379371857532533-67.19651522580989,63.379371857532533-37.063065088999792,0-67.19651522580989-26.215639370760982-67.19651522580989-63.379371857532533Z"/>
    <path class="cls-1" d="M1539,931.692938765501822c0,25.612662202524916-21.494543859300393,49.417420118676091-53.937180834609535,49.417420118676091h-69.105086909939928v-161.91375072910887h53.234563486939805c29.330165391379523,0,50.824709250689921,19.787306970691134,50.824709250689921,42.085649184587965,0,16.673808168419782-11.048760513770503,28.626520825375337-17.678427709370226,28.626520825375337,17.276785336649482,0,36.661422716289962,17.376425516080417,36.661422716289962,41.784160600469477ZM1467.886701226500008,856.56116182819369h-10.546450743299829v25.412354625342232h10.245475768349934c9.341523625159425,0,16.371805975129973-4.620428113698836,16.371805975129973-12.957332197908727,0-7.834594313734669-6.829974772789683-12.455022427433505-16.070831000180078-12.455022427433505ZM1497.818816567770227,926.570200881328674c0-9.442191022925726-6.829974772780588-15.166878856992298-18.984022225270564-15.166878856992298l-21.494543859299483-.100667397767211v30.735400086700793h21.193568884349588c9.843833395640104,0,19.284997200220459-4.820735690882429,19.284997200220459-15.467853831941284Z"/>
  </g>
</svg>