<?xml version="1.0" encoding="UTF-8"?>
<svg id="Layer_1" data-name="Layer 1" xmlns="http://www.w3.org/2000/svg" viewBox="0 0 1800 1800">
  <defs>
    <style>
      .cls-1 {
        fill: #9f4e2a;
      }

      .cls-1, .cls-2, .cls-3 {
        stroke-width: 0px;
      }

      .cls-2 {
        fill: none;
      }

      .cls-3 {
        fill: #f0e9c5;
      }
    </style>
  </defs>
  <g>
    <g>
      <path class="cls-3" d="M976.129227432964399,687.296671230989887c-.870492817233753-10.172556560130033-2.099454493243684-19.799232033350563-2.406668868310589-29.459660459269799-.238979239187756-7.407731360370235-3.789081468175027-9.046208027350076-10.34330066345774-8.465740581499631-12.715799875944867,1.109263704858677-25.636409335257667,2.816079683499993-38.778809030073717,2.662524583849518-1.877560081960837-.017084827899453-3.277161685534338-.034169655820733-4.352464086126929-.238979239189575-7.527012628416742-.648598405939993-10.889494277721496-3.259868506060229-12.68163022013232-7.339392048730588l9.353422402426077-.597135570649698c12.681630220123225-1.041341096341057,25.397325920280309-2.06538901319982,38.505764310843006-3.140691413800596-.529108786348843-.119593795379842-.375553686702006-.153555099639561.802153505578644-.051254483729281,3.379462301435524-.290025371370575,6.810179086600328-.563174266389979,10.257980699686414-.836323161400287,1.587326359034705-1.263027156070166,1.621496014847253-3.276953333970596,1.177707192283378-5.086278280070474-.512023958433019-1.280111983969618-1.024152092643817-2.526054312120323-1.519091223161013-3.737826984450294-.10240479168624-.170848279118218-.170639927552656-.29023372292977-.204809583385213-.341488206659051l.08531996378133.068339311639647c-2.03111518159858-4.932723180430912-3.857420779821041-9.421553362499253-5.547151930545624-13.927572548269382-2.935673478867102-7.851311831380372-7.595351940050932-10.428620627229975-16.521966172028442-9.506873326270579-13.893507068228246,1.416582255700632-28.060058855696298,1.14364171222951-42.055970715608964.511919782649784-11.521007855749303-.529004610569245-15.77096297441949-4.096191667460516-17.494863780953892-10.018793108938553h62.042823328634768c.665683233850359-1.570554058451307.409619166751327-3.738035336000394-.051254483729281-5.598406414272176-7.663587075924625-5.837385653478123-15.002874948871067-12.255030401249314-23.332145258645141-16.82938889865909-10.377470319282111-5.700707030180638-21.164559805306453-5.785922818180552-30.48370837613038,3.755120163930769-10.752919830203609,11.00887972153032-21.813158211251903,21.744818899600432-32.736717969007259,32.583058693579005-.580363270076305.665683233859454-3.601460888495239,4.318294430320748-1.041236920557822,6.92977288198017l48.712594702577917,4.796044557140704c-2.287179248713983,5.342238171399003-6.86143357034598,8.243741994439915-18.36535659817855,7.612436767980398-10.155575907998355-.563382617950992-20.362302123955487-1.331366467711632-30.432558068171602-2.731072247061093-.751003197628961-.085424139550014-1.50200639526247-.153555099639561-2.235924764977426-.221686059729109-8.056121414751033-.887577645131387-11.162538996952208,1.348242944059166-12.186691089596025,10.394242619859142l31.20064609371093,1.792240118180416c-2.082369665332408,5.444642963078877-6.52004953946016,8.534079893150192-18.058142223106188,8.346355137689898-3.157567890160863-.068130960089547-6.315239956092228-.136470271729195-9.472807846240357-.238979239200489-.187724755462114.017084827910367-.375553686702006.017084827910367-.580363270079033.034169655820733-8.602315029006604.358364683010223-11.794052574981833,4.130361323290344-12.971759767272488,6.605369503229667-2.918692826731785,8.99495354362989-4.693743941224056,18.46765721409065-7.083327981617913,28.333103574939742,50.538900300800378,1.126556884330057,98.927091624621426,11.094303861089429,148.800308691571445,3.94284491938015Z"/>
      <path class="cls-3" d="M991.302742309381756,806.449594707830329c12.459735808838559-2.014134529470539,16.129431833198396-9.933785672490558,17.068055610518059-15.907641597699694.170848279100028-7.01498866997099-.085215788009918-14.252080102800392-.085215788009918-22.000882966711288-70.047690259646515,25.363260440240992-139.037267122398589,15.822217458140585-208.555848595708994-1.587430534809755-3.942740743606009,17.221923237490046-.921643125183436,32.992886211899531,2.406668868298766,48.815103670031021,1.36543194774913,6.48577570785892,4.761979077100477,9.728767737569797,11.503923027842575,10.565090898970084,18.570166181544664,2.321244728749662,37.020842743493631,5.512982274718524,55.607989577169064,7.612332592188977.955812780997803.102508967471294,1.894644909867566.205017934929856,2.833372862957731.307318550840137l23.741764425391011,1.433667083610999c-2.048095833734806,5.47881261889961-6.46879505572997,8.585334376879473-18.023972567292731,8.36343996558935-.989878261041667-.017084827910367-2.014030353690941-.136470271729195-3.038078270554252-.256064067099942v.017084827910367c-11.299113444458271-.938832128869763-22.581246236796687-1.996841350000977-33.863274853346411-3.123398234331034-9.524062329963272-.972793433138577-18.945615692465253-2.969843134689654-28.759807569587792-4.540188841589043,2.526054312123961,16.24892145279955,4.35235991035006,18.433695909809103,17.904482947697034,20.481791743548456,13.654527829026847,2.048095833732077,27.343225313886251,3.840335951910674,41.014733795052052,5.82030082556048l23.588209325741445,3.004012790510387c-2.167585453323227,5.10336310798084-7.561182284227471,8.943699059889695-16.146412485330075,8.004866931019933v.017084827910367c-12.169606261682929-.767983849749726-24.270977387507628-4.267039946569639-36.764882852170558-5.598198062709344-5.939686269380218-.392742690401064-12.784035011801279.341279855099856-9.131423815354538,6.690585291229581.546193614265576.785068677660092,1.092387228517509,1.570137355340194,1.655561494899302,2.355414384559481.017084827916733.034169655820733.034169655821643.051254483740195.051254483738376.085215787999914,8.056121414753761,11.555177511570946,15.753878146491843,23.059100539399878,24.799981998075964,33.385420550730487,8.820146584872418,10.080152643320616,18.722575347602287,19.249704794139689,27.24811282679093,28.971909457559377,9.69261874192398,9.600944055569926,20.87088828164724,9.458848291720642,31.614432291661615,3.555519369539979.515149231833675-.289817019809561,1.030506815221088-.579738215390535,1.529717152714511-.869555235200096,1.52950880116714-.901641375428881,3.010680040439183-1.83536889107927,4.492163807033648-2.817642320189407.482958915828931-.321903160029251.965813655888269-.643910495849923,1.448980923275485-.982065077549123.391596756807303-.278566035571203.777255494165729-.55265251261153,1.16635203226906-.826843165430546,11.354743310950653-15.074443709680054,22.653960931196707-30.073776682040261,33.731596667485974-44.765166048870014-9.711787085431752,0-20.396471779766216.170639927549928-31.30305088539717.017084827910367l-20.29406698809089.153555099639561c1.655665670680719-5.666537374359905,5.854366305609801-9.13142381534999,17.392458989266743-9.711682909650335,1.638580842762167-.085424139550014,6.485879883636699.324195027189489,9.250913434951144.426703994660784,7.578267112142385-.068339311650561,15.139553572151272-.136678623290209,22.700735856388746-.44378882257115,7.783076695519412-.938832128869763,14.678575745901071-5.990940753110408,19.628383754240531-10.821154966070026,4.949703832549858-4.830214212959618,7.953716623066612-9.438742366199222,7.953716623066612-9.438742366199222,3.260076857617605-5.001062492061465,6.281070300259671-10.1385952558594,8.97786871570861-15.412598291390168,4.881468696692536-9.609382293740055,7.714841559656634-20.259897332260152,12.152521433786205-32.36116428231071-2.28717924871944.238979239200489-4.352359910360065.44378882257115-6.246900644439847.648598405950906-.614532925907952.051254483720186-1.211876848115025.119593795368928-1.792240118188602.187724755460295h-.068235135865507c-1.194792020196473.119385443809733-2.3383295566573.238979239189575-3.43071678517299.358573034569417-1.109367880636455.119385443820647-2.16768962911101.221686059720014-3.19173754597432.341279855099856-1.331262291919302.136470271729195-2.611374275898015.290025371370575-3.891486259864905.460873650479698-19.645468582149078,2.474799828391042-39.23978685633756,5.291087863441135-58.936405746434502,7.288137564990393-.187724755461204.017084827919462-.375449510929684,0-.563278442171395,0-10.274961351814454.682559710199712-14.610340610032836-2.099558669020553-16.96575499460414-7.202921776990479l15.58323821895101-2.184566105470367c.836323161398468-.136678623279295,1.672750498581081-.273357246569503,2.52615848790083-.375657862479784,1.160622364374831-.153555099639561,2.321244728749662-.307318550840137,3.481867093113578-.460665298918684l1.979860697869299-.273357246580417v.017084827919462c18.672570973234542-2.457715000480675,37.379311602290727-4.778959729230337,56.017712919703627-7.424399485169488Z"/>
      <path class="cls-3" d="M809.270880694057269,759.255882876859687c65.166221562963074,16.16370566481055,130.366612781748699,24.612361418399814,196.830031156602672-.682559710199712-4.181719982800132-20.106342232620591-16.180686316935862-35.24579162900045-25.295025304378214-51.819116460550504-3.635526368537285-6.605161151668653-8.534079893149283-8.226761342299142-15.822217458145133-8.329061958209422-28.793977225409435-.426703994660784-57.570869622901228-1.536176051080474-86.34786619618626-2.628563279589798-12.954674939354845-.495043306300431-25.892369226582559-1.962880045741258-38.847044165938314-2.082265489550991-3.481971268909547-.034169655818914-8.431675101463952,2.304159900841114-10.172660735915088,5.120447935880293-3.106417582192989,5.000854140509546-4.284124774480915,11.19660447699971-7.253967909173298,19.764854025970635,21.07913566575553,3.260076857610329,41.663332200993864,6.451814403590106,62.128143292409732,9.60938229374915l33.419381855005668,4.608319801671314c-2.577308795862336,5.342550698718696-7.288033389225347,8.124460726388861-18.774975764929877,7.049366677360013-12.152521433776201-1.126765235900166-24.390362831332823-2.560223967950151-36.303905025910353-5.069401803721121-7.356372700860447-1.006963088950215-14.695764749584669-2.167481277549086-21.966713310885098-3.60135671271928-29.084210948345572-5.76904634182938-29.783959662239795-6.6395391590504-37.73778046109237,20.430537259819175-.307214375055992,2.304368252391214.358468858802553,5.786131169739747,6.144600028535933,7.629417420090249Z"/>
    </g>
    <g>
      <path class="cls-2" d="M809.270884937491246,759.255882876859687c65.166221562963983,16.16370566481055,130.366612781744152,24.612361418399814,196.83003115658903-.682559710199712-4.181719982790128-20.106342232620591-16.180686316930405-35.24579162900045-25.295025304369119-51.819116460550504-3.635526368541832-6.605161151668653-8.534079893142916-8.226761342299142-15.822217458148771-8.329061958209422-28.79397722540125-.426703994660784-57.570869622902137-1.536176051080474-86.347866196183531-2.628563279589798-12.954674939357574-.495043306300431-25.892369226585288-1.962880045741258-38.847044165940133-2.082265489550991-3.48197126890318-.034169655818914-8.431675101456676,2.304159900841114-10.172660735905083,5.120447935880293-3.106417582202994,5.000854140509546-4.284124774483644,11.19660447699971-7.253967909174207,19.764854025970635,21.079135665753711,3.260076857610329,41.663332200983859,6.451814403590106,62.128143292406094,9.60938229374915l33.419381854991116,4.608319801671314c-2.577308795854151,5.342550698718696-7.288033389216253,8.124460726388861-18.774975764912597,7.049366677360013-12.152521433785296-1.126765235900166-24.390362831332823-2.560223967950151-36.30390502591672-5.069401803721121-7.35637270085499-1.006963088950215-14.695764749587397-2.167481277549086-21.966713310886917-3.60135671271928-29.084210948338296-5.76904634182938-29.783959662240704-6.6395391590504-37.737780461085094,20.430537259819175-.307214375055992,2.304368252391214.358468858794367,5.786131169739747,6.144600028535933,7.629417420090249Z"/>
      <path class="cls-2" d="M976.129231676389281,687.296671230989887c-.870492817224658-10.172556560130033-2.099454493242774-19.799232033350563-2.406668868298766-29.459660459269799-.23897923919867-7.407731360370235-3.789081468185032-9.046208027350076-10.343300663459559-8.465740581499631-12.715799875953962,1.109263704858677-25.636409335267672,2.816079683499993-38.778809030083721,2.662524583849518-1.877560081959928-.017084827899453-3.277161685533429-.034169655820733-4.352464086126929-.238979239189575-7.527012628414923-.648598405939993-10.889494277711492-3.259868506060229-12.681630220123225-7.339392048730588l9.353422402417891-.597135570649698c12.681630220124134-1.041341096341057,25.397325920280309-2.06538901319982,38.505764310841187-3.140691413800596-.529108786338838-.119593795379842-.375553686699277-.153555099639561.802153505580463-.051254483729281,3.379462301435524-.290025371370575,6.810179086608514-.563174266389979,10.257980699686414-.836323161400287,1.587326359034705-1.263027156070166,1.621496014856348-3.276953333970596,1.17770719228065-5.086278280070474-.512023958430291-1.280111983969618-1.024152092640179-2.526054312120323-1.519091223158284-3.737826984450294-.10240479168715-.170848279118218-.170639927552656-.29023372292977-.204809583377028-.341488206659051l.085319963774054.068339311639647c-2.031115181599489-4.932723180430912-3.857420779824679-9.421553362499253-5.54715193053562-13.927572548269382-2.935673478878016-7.851311831380372-7.595351940060937-10.428620627229975-16.521966172038447-9.506873326270579-13.893507068226427,1.416582255700632-28.060058855694479,1.14364171222951-42.055970715609874.511919782649784-11.521007855748394-.529004610569245-15.770962974407666-4.096191667460516-17.494863780942978-10.018793108938553h62.042823328624763c.665683233857635-1.570554058451307.409619166754055-3.738035336000394-.05125448373019-5.598406414272176-7.663587075916439-5.837385653478123-15.002874948871067-12.255030401249314-23.332145258636956-16.82938889865909-10.377470319282111-5.700707030180638-21.164559805314639-5.785922818180552-30.48370837613129,3.755120163930769-10.752919830210885,11.00887972153032-21.81315821125645,21.744818899600432-32.736717969011806,32.583058693579005-.580363270079033.665683233859454-3.601460888497968,4.318294430320748-1.041236920552365,6.92977288198017l48.712594702568822,4.796044557140704c-2.287179248713073,5.342238171399003-6.861433570336885,8.243741994439915-18.365356598177641,7.612436767980398-10.155575907997445-.563382617950992-20.362302123944573-1.331366467711632-30.432558068169783-2.731072247061093-.751003197624414-.085424139550014-1.502006395253375-.153555099639561-2.235924764976517-.221686059729109-8.056121414753761-.887577645131387-11.162538996946751,1.348242944059166-12.186691089598753,10.394242619859142l31.200646093718206,1.792240118180416c-2.082369665336955,5.444642963078877-6.520049539455613,8.534079893150192-18.058142223112554,8.346355137689898-3.157567890153587-.068130960089547-6.315239956084042-.136470271729195-9.472807846233081-.238979239200489-.187724755473027.017084827910367-.3755536867111.017084827910367-.580363270079943.034169655820733-8.602315029016609.358364683010223-11.7940525749882,4.130361323290344-12.971759767271578,6.605369503229667-2.918692826739971,8.99495354362989-4.69374394123497,18.46765721409065-7.083327981627917,28.333103574939742,50.538900300802197,1.126556884330057,98.927091624622335,11.094303861089429,148.800308691572354,3.94284491938015Z"/>
      <path class="cls-2" d="M991.302746552808458,806.449594707830329c12.459735808841288-2.014134529470539,16.129431833202034-9.933785672490558,17.068055610511692-15.907641597699694.170848279110032-7.01498866997099-.08521578798991-14.252080102800392-.08521578798991-22.000882966711288-70.047690259661067,25.363260440240992-139.037267122413141,15.822217458140585-208.555848595726275-1.587430534809755-3.942740743595095,17.221923237490046-.921643125173432,32.992886211899531,2.40666886830968,48.815103670031021,1.365431947741854,6.48577570785892,4.761979077092292,9.728767737569797,11.50392302783257,10.565090898970084,18.570166181546483,2.321244728749662,37.020842743499088,5.512982274718524,55.607989577170883,7.612332592188977.955812781005989.102508967471294,1.894644909876661.205017934929856,2.833372862968645.307318550840137l23.741764425380097,1.433667083610999c-2.04809583372662,5.47881261889961-6.468795055719056,8.585334376879473-18.023972567291821,8.36343996558935-.989878261039848-.017084827910367-2.014030353683665-.136470271729195-3.038078270546976-.256064067099942v.017084827910367c-11.299113444466457-.938832128869763-22.581246236793959-1.996841350000977-33.863274853346411-3.123398234331034-9.524062329970548-.972793433138577-18.945615692474348-2.969843134689654-28.759807569584154-4.540188841589043,2.526054312115775,16.24892145279955,4.352359910338237,18.433695909809103,17.90448294768521,20.481791743548456,13.65452782903867,2.048095833732077,27.34322531388716,3.840335951910674,41.014733795052052,5.82030082556048l23.588209325752359,3.004012790510387c-2.167585453331412,5.10336310798084-7.561182284237475,8.943699059889695-16.146412485330075,8.004866931019933v.017084827910367c-12.169606261690205-.767983849749726-24.270977387517632-4.267039946569639-36.764882852169649-5.598198062709344-5.939686269382946-.392742690401064-12.784035011810374.341279855099856-9.131423815355447,6.690585291229581.546193614251933.785068677660092,1.092387228507505,1.570137355340194,1.655561494897483,2.355414384559481.017084827907638.034169655820733.034169655817095.051254483740195.051254483729281.085215787999914,8.056121414754671,11.555177511570946,15.753878146503666,23.059100539399878,24.799981998075964,33.385420550730487,6.624537846741987,7.570870631769139,13.843919396974343,14.633780160529568,20.640138929072236,21.80117799656.00052087889344-.000312527339702.008542413952455-.004792085879672.008542413952455-.004792085879672.021772738008622.029690097289858.043858003356036.053963054018823.065630741365567.083548975529993,2.376145364779404,2.507406847509628,4.694160644343356,5.031690171368609,6.918626073527776,7.592330842429874,18.317644090951944,15.784922528919196,36.788009875311218-.108863690049475,42.402980238603959-5.808216435090799,10.498522575574498-13.937260895800136,20.944332206509898-27.802640503448856,31.195437304717416-41.397892313689226-9.711787085429023,0-20.39647177977713.170639927549928-31.303050885405355.017084827910367l-20.294066988079976.153555099639561c1.655665670669805-5.666537374359905,5.854366305599797-9.13142381534999,17.392458989256738-9.711682909650335,1.638580842761257-.085424139550014,6.48587988363488.324195027189489,9.250913434950235.426703994660784,7.578267112142385-.068339311650561,15.139553572160366-.136678623290209,22.700735856389656-.44378882257115,7.783076695518503-.938832128869763,14.678575745897433-5.990940753110408,19.628383754239621-10.821154966070026,4.949703832554405-4.830214212959618,7.953716623063883-9.438742366199222,7.953716623063883-9.438742366199222,3.260076857620334-5.001062492061465,6.28107030026149-10.1385952558594,8.977868715719524-15.412598291390168,4.881468696687989-9.609382293740055,7.714841559642991-20.259897332260152,12.152521433772563-32.36116428231071-2.287179248710345.238979239200489-4.35235991035006.44378882257115-6.246900644439847.648598405950906-.614532925902495.051254483720186-1.211876848105931.119593795368928-1.792240118184964.187724755460295h-.068235135866416c-1.194792020196473.119385443809733-2.338329556662757.238979239189575-3.430716785162076.358573034569417-1.109367880644641.119385443820647-2.167689629118286.221686059720014-3.191737545981596.341279855099856-1.331262291920211.136470271729195-2.61137427588983.290025371370575-3.891486259867634.460873650479698-19.645468582147259,2.474799828391042-39.239786856334831,5.291087863441135-58.936405746432683,7.288137564990393-.187724755461204.017084827919462-.375449510929684,0-.563278442160481,0-10.274961351820821.682559710199712-14.610340610035564-2.099558669020553-16.965754994615054-7.202921776990479l15.583238218947372-2.184566105470367c.836323161403925-.136678623279295,1.672750498585629-.273357246569503,2.526158487904468-.375657862479784,1.160622364374831-.153555099639561,2.321244728746933-.307318550840137,3.481867093122673-.460665298918684l1.979860697861113-.273357246580417v.017084827919462c18.672570973234542-2.457715000480675,37.379311602300731-4.778959729230337,56.017712919703627-7.424399485169488Z"/>
      <path class="cls-1" d="M995.228402468505919,713.069550837970382c-8.192695862274377-12.203775917500025-10.650515038524645-24.561106934661439-11.111284513227474-38.420444347060766-1.280111983968709-39.273852336380514-16.095262177378572-72.641875531859114-44.326065136398029-100.121779469040121-18.962700520383805-18.45057238616937-29.374236319706142-19.61129892632016-51.05082008345471-4.864383868780351-.290233722927951.204809583370661-.614532925899766.375657862481603-.887577645140482.597343922210712-39.086127580911125,31.883414155479841-68.084914389694859,69.296791237809884-69.416176681622346,122.737091185870668-.187724755461204,7.373353352988488-3.430716785164805,15.480729251479715-7.510031976279606,21.796073383338808-17.085244614200747,26.404393185021036-27.274886002242965,54.959599522801-20.806090946521181,86.057736649039725,4.181719982801951,20.140303536891224,13.398567937709231,39.341983296471881,21.540009316236137,58.475532095961171,3.481971268912275,8.141545554319237,4.84740321665322,15.105071388990837,1.997049701555625,23.707490593789771-2.679713587533115,8.07320624265958-4.198804810701404,16.829388898649995-4.488934357849757,25.329299135970359-.290233722927951,8.073206242668675,2.065180661644263,16.009733862048961,11.86228771084825,22.546972405199995-2.833268687179952-18.245762802800527-5.803111821872335-34.597193223069553,3.737931160228982-50.419410681201043,27.664190891894577,45.533774953300963,49.718203506386089,65.100174118470022,64.270205679647006,73.449862881110676,4.638843305205228,3.099750332290569,10.020355745627057,5.49558491947937,15.896598965024168,5.945415937279904,2.433025340631502.307422726620644,3.730222152510578.091674686349506,3.789914874421811.077298428719587.590989199632531-.033232073799809,1.206563883323724-.129490494469792,1.835160539522803-.260335274078898,3.545726846223261-.507648575679923,7.228444843082798-1.792344293970018,10.999295549781891-4.082544640290507l-.007188128822236.008125710830427c5.658724190869179-2.123727449970829,14.01341339094779-11.828222230800748,20.671912541953134-20.563048851910935,10.264856301163491-11.169727125768986,20.571903793195816-24.265456071168956,28.776267342816027-35.249854484420212,1.618162389894678-1.791198360378985,3.222052697937215-3.594689462799579,4.786981264278438-5.431412639019982,3.544476736872639-4.15703032294914,6.303468092952244-8.97484761809028,9.065480546649269-13.792664913238696,1.829430871628574-2.637001517759927,2.860458565748559-4.170885701680163,2.861708675108275-4.172760865720193,1.782655946425621-1.865892394609546,3.459677651997481-2.516782667709776,3.365815274260967,1.801928465720266-1.740881458671538,9.728976089119897-7.014988669974628,38.710678069988717-7.817142175553272,39.2738523363696.034065480041136.017084827919462.10240479168715.017084827919462.170639927552656.017084827919462h.102404791678964c1.331366467707994.033961304259719,7.680671903832263-.34148820666087,11.486838199926751-10.240895871778775.085424139551833-.204809583370661.170744103333163-.443788822562055.256064067107218-.665683233850359,1.280111983967799-3.601356712721099,2.235924764973788-8.363439965591169,2.526054312113047-14.729830229631261.563278442171395-7.271052737089121.597448097993038-14.610236434258695,1.109472056426057-21.898373999249088.307214375065087-4.557273669501228-.170639927555385-9.711891261211349,1.775051114495909-13.51805755730129,25.039169588829282-48.917404285948578,25.619220331569522-97.06661637057914-5.461831966764294-143.389627032758654ZM834.412250966444844,655.020722736669995c1.177707192283378-2.475008179939323,4.36944473825497-6.247004820219445,12.971759767271578-6.605369503229667.204809583368842-.017084827910367.392638514606915-.017084827910367.580363270079943-.034169655820733,3.157567890149039.102508967471294,6.315239956079495.170848279110942,9.472807846233081.238979239200489,11.538092683656942.187724755460295,15.975772557775599-2.901712174611021,18.058142223112554-8.346355137689898l-31.200646093718206-1.792240118180416c1.024152092652002-9.045999675799976,4.130569674844992-11.281820264990529,12.186691089598753-10.394242619859142.733918369723142.068130960089547,1.484921567352103.136261920179095,2.235924764976517.221686059729109,10.07025594422521,1.39970577934946,20.276982160172338,2.1676896291101,30.432558068169783,2.731072247061093,11.503923027840756.631305226459517,16.078177349464568-2.270198596581395,18.365356598177641-7.612436767980398l-48.712594702568822-4.796044557140704c-2.560223967945603-2.611478451659423.460873650473332-6.264089648120716,1.041236920552365-6.92977288198017,10.923559757755356-10.838239793978573,21.983798138800921-21.574178972048685,32.736717969011806-32.583058693579005,9.319148570816651-9.541042982111321,20.106238056849179-9.455827194111407,30.48370837613129-3.755120163930769,8.329270309765889,4.574358497409776,15.668558182720517,10.992003245180967,23.332145258636956,16.82938889865909.460873650484245,1.860371078271783.716937717587825,4.027852355820869.05125448373019,5.598406414272176h-62.042823328624763c1.723900806535312,5.922601441478037,5.973855925194584,9.489788498369307,17.494863780942978,10.018793108938553,13.995911859915395.631721929579726,28.162463647383447.904662473050848,42.055970715609874-.511919782649784,8.92661423197751-.921747300959396,13.586292693160431,1.655561494890208,16.521966172038447,9.506873326270579,1.689731150710941,4.506019185770128,3.516036748936131,8.994849367838469,5.54715193053562,13.927572548269382l-.085319963774054-.068339311639647c.034169655824371.051254483729281.102404791689878.170639927540833.204809583377028.341488206659051.494939130518105,1.211772672329971,1.007067264727993,2.457715000480675,1.519091223158284,3.737826984450294.443788822575698,1.809324946099878.409619166754055,3.823251124000308-1.17770719228065,5.086278280070474-3.4478016130779.273148895010308-6.87851839825089.546297790029712-10.257980699686414.836323161400287-1.17770719227974-.102300615910281-1.331262291919302-.068339311650561-.802153505580463.051254483729281-13.108438390560877,1.075302400600776-25.824134090717052,2.099350317459539-38.505764310841187,3.140691413800596l-9.353422402417891.597135570649698c1.792135942411733,4.079523542670358,5.154617591708302,6.690793642790595,12.681630220123225,7.339392048730588,1.0753024005935.204809583368842,2.474904004167001.221894411290123,4.352464086126929.238979239189575,13.142399694816049.153555099650475,26.063009154129759-1.553260878990841,38.778809030083721-2.662524583849518,6.554219195274527-.580467445850445,10.104321424260888,1.058009221129396,10.343300663459559,8.465740581499631.307214375055992,9.660428425919235,1.536176051074108,19.287103899139765,2.406668868298766,29.459660459269799-49.873217066950019,7.151458941709279-98.261408390770157-2.816288035050093-148.800308691572354-3.94284491938015,2.389584040392947-9.865446360849091,4.164635154887947-19.338150031309851,7.083327981627917-28.333103574939742ZM803.126284908955313,751.626465456769438c7.95382079884439-27.070076418869576,8.653569512746799-26.199583601648555,37.737780461085094-20.430537259819175,7.270948561299519,1.433875435170194,14.610340610031926,2.594393623769065,21.966713310886917,3.60135671271928,11.913542194583897,2.50917783577097,24.151383592131424,3.942636567820955,36.30390502591672,5.069401803721121,11.486942375696344,1.075094049028849,16.197666969058446-1.706815978641316,18.774975764912597-7.049366677360013l-33.419381854991116-4.608319801671314c-20.464811091422234-3.157567890159044-41.049007626652383-6.34930543613882-62.128143292406094-9.60938229374915,2.969843134690564-8.568249548970925,4.147550326971214-14.763999885461089,7.253967909174207-19.764854025970635,1.740985634448407-2.816288035039179,6.690689467001903-5.154617591699207,10.172660735905083-5.120447935880293,12.954674939354845.119385443809733,25.892369226582559,1.58722218325056,38.847044165940133,2.082265489550991,28.776996573281394,1.092387228509324,57.553888970782282,2.201859284929014,86.347866196183531,2.628563279589798,7.288137565005854.102300615910281,12.186691089606938,1.723900806540769,15.822217458148771,8.329061958209422,9.114338987438714,16.573324831550053,21.113305321578991,31.712774227929913,25.295025304369119,51.819116460550504-66.463418374844878,25.294921128599526-131.663809593625047,16.846265375010262-196.83003115658903.682559710199712-5.786131169741566-1.843286250350502-6.451814403591925-5.325049167699035-6.144600028535933-7.629417420090249ZM933.305172935243718,814.130266611660772c-1.16062236437574.153346748078548-2.321244728747843.307110199279123-3.481867093122673.460665298918684-.853407989318839.102300615910281-1.689835326500543.238979239200489-2.526158487904468.375657862479784l-15.583238218947372,2.184566105470367c2.35541438457949,5.103363107969926,6.690793642794233,7.885481487190191,16.965754994615054,7.202921776990479.187828931230797,0,.375553686699277.017084827919462.563278442160481,0,19.696618890097852-1.997049701549258,39.290937164285424-4.813337736599351,58.936405746432683-7.288137564990393,1.280111983977804-.170848279109123,2.560223967947422-.324403378750503,3.891486259867634-.460873650479698,1.02404791686331-.119593795379842,2.082369665336955-.221894411279209,3.191737545981596-.341279855099856,1.092387228499319-.119593795379842,2.235924764965603-.239187590759684,3.430716785162076-.358573034569417h.068235135866416c.580363270079033-.068130960091366,1.177707192282469-.136470271740109,1.792240118184964-.187724755460295,1.894540734089787-.204809583379756,3.959721395729503-.409619166750417,6.246900644439847-.648598405950906-4.437679874129572,12.101266950050558-7.271052737084574,22.751781988570656-12.152521433772563,32.36116428231071-2.696798415458034,5.274003035530768-5.71779185809919,10.411535799328703-8.977868715719524,15.412598291390168,0,0-3.004012790509478,4.608528153239604-7.953716623063883,9.438742366199222-4.949808008342188,4.830214212959618-11.845307058721119,9.882322837200263-19.628383754239621,10.821154966070026-7.56118228422929.307110199280942-15.122468744247271.375449510920589-22.700735856389656.44378882257115-2.765033551315355-.102508967471294-7.612332592188977-.512128134210798-9.250913434950235-.426703994660784-11.538092683656942.580259094300345-15.736793318586933,4.04514553529043-17.392458989256738,9.711682909650335l20.294066988079976-.153555099639561c10.906579105628225.153555099639561,21.591263799976332-.017084827910367,31.303050885405355-.017084827910367-10.251105098207518,13.59525181024037-20.696914729142918,27.46063141788909-31.195437304717416,41.397892313689226-5.614970363292741,5.699352745041324-24.085336147652015,21.593138964009995-42.402980238603959,5.808216435090799-2.22446542918442-2.560640671061265-4.542480708748371-5.084923994920246-6.918626073527776-7.592330842429874-.021772738009531-.02958592151117-.043858003356945-.053858878240135-.065630741365567-.083548975529993,0,0-.008021535059015.00447955853997-.008542413952455.004792085879672-6.796219532097894-7.167397836030432-14.015601082330249-14.23030736479086-20.640138929072236-21.80117799656-9.046103851572298-10.326320011330608-16.743860583321293-21.830243039159541-24.799981998075964-33.385420550730487-.017084827912186-.033961304259719-.034169655821643-.051046132179181-.051254483729281-.085215787999914-.563174266389979-.785277029219287-1.10936788064555-1.570345706899388-1.655561494897483-2.355414384559481-3.652611196454927-6.349305436129725,3.191737545972501-7.083327981630646,9.131423815355447-6.690585291229581,12.493905464652016,1.331158116139704,24.595276590479443,4.830214212959618,36.764882852169649,5.598198062709344v-.017084827910367c8.5852302010926.938832128869763,13.978827031998662-2.901503823039093,16.146412485330075-8.004866931019933l-23.588209325752359-3.004012790510387c-13.671508481164892-1.979964873649806-27.360205966013382-3.772204991828403-41.014733795052052-5.82030082556048-13.552123037346973-2.048095833739353-15.378428635569435-4.232870290748906-17.90448294768521-20.481791743548456,9.814191877109806,1.570345706899388,19.235745239613607,3.567395408450466,28.759807569584154,4.540188841589043,11.282028616552452,1.126556884330057,22.564161408879954,2.184566105461272,33.863274853346411,3.123398234331034v-.017084827910367c1.02404791686331.119593795370747,2.048200009507127.238979239189575,3.038078270546976.256064067099942,11.555177511572765.221894411290123,15.975876733565201-2.88462734668974,18.023972567291821-8.36343996558935l-23.741764425380097-1.433667083610999c-.938727953091984-.102300615910281-1.877560081962656-.204809583368842-2.833372862968645-.307318550840137-18.587146833671795-2.099350317470453-37.0378233956244-5.291087863439316-55.607989577170883-7.612332592188977-6.741943950740279-.836323161400287-10.138491080090716-4.079315191111164-11.50392302783257-10.565090898970084-3.328311993483112-15.82221745813149-6.349409611904775-31.593180432540976-2.40666886830968-48.815103670031021,69.518581473313134,17.40964799295034,138.508158336065208,26.950690975050748,208.555848595726275,1.587430534809755,0,7.748802863910896.256064067099942,14.985894296740298.08521578798991,22.000882966711288-.938623777309658,5.973855925209136-4.608319801670405,13.893507068229155-17.068055610511692,15.907641597699694-18.638401317402895,2.645439755939151-37.345141946469084,4.966684484688813-56.017712919703627,7.424399485169488v-.017084827919462l-1.979860697861113.273357246580417Z"/>
    </g>
  </g>
  <g>
    <path class="cls-1" d="M334.636183025680111,1153.036425894359127l-62.146821323551194-114.540721009478148h60.646765323952422l28.134682028291536,58.396681324558813,28.009997066688811-58.396681324558813h60.772089695624345l-62.2727851052814,114.540721009478148v87.031382019380544h-53.14392768572452v-87.031382019380544Z"/>
    <path class="cls-1" d="M555.58368967766728,1216.559257665969199h-75.277106895492579l-10.253579714225452,23.508550247770472h-58.520726876103254l93.658227876097044-201.625174063799932h25.383939952298533l93.783552247754415,201.625174063799932h-58.646051247763353l-10.128255342565353-23.508550247770472ZM538.577300325007855,1177.420967923650096l-20.632483800116461-47.767767905399523-20.757168761717367,47.767767905399523h41.389652561833827Z"/>
    <path class="cls-1" d="M860.557351069356628,1037.92982698222113v202.137980931518541h-53.519261390647443v-79.9032386760191l-54.26928939044501,76.527153561830346h-.375333704931109l-54.394613762114204-76.527153561830346v79.9032386760191h-53.51862198058825v-202.137980931518541h21.507196761510386l86.531363352852168,117.233276770049997,86.530723942792065-117.233276770049997h21.507836171571398Z"/>
    <path class="cls-1" d="M1140.517930343270564,1038.495704884880979v201.572103028858692h-53.394576429051085v-75.901810523630047h-59.8960979140993v75.901810523630047h-53.519900800705727v-201.572103028858692h53.519900800705727v75.653080010488338h59.8960979140993v-75.653080010488338h53.394576429051085Z"/>
    <path class="cls-1" d="M1173.768532257659899,1161.553367886970591v-123.057663002089612h53.894595095580371v122.932338630429513c0,16.756380019389326,14.380332238270057,27.885951515139823,29.635377437939496,27.885951515139823,15.13099964814046,0,29.886026181279703-11.378941418959585,29.886026181279703-27.885951515139823v-122.932338630429513h53.894595095580371v123.057663002089612c0,46.266433085678727-37.514188191169524,78.903201342949615-83.655296905189971,78.903201342949615-46.141108714019538,0-83.655296905189971-32.636768257270887-83.655296905189971-78.903201342949615Z"/>
    <path class="cls-1" d="M1527.510638297870173,1178.546329628379681c0,31.886100847410489-26.759310990290032,61.52147828535999-67.148286809000638,61.52147828535999h-86.031344686309239v-201.572103028858692h66.273573847599437c36.514150858100038,0,63.273461848400075,24.633911952500057,63.273461848400075,52.393899685928773,0,20.757808171769284-13.754989200069758,35.63815907658136-22.008494248169882,35.63815907658136,21.508475581640596,0,45.641090047480247,21.63252113317867,45.641090047480247,52.018565980988569ZM1438.979200278899953,1085.012147303830716h-13.129646161880373v31.636730924199583h12.754951867010277c11.629590162280692,0,20.381835056779892-5.752132895300747,20.381835056779892-16.131036981199941,0-9.7535610476898-8.502874971299207-15.505693942999642-20.007140761909795-15.505693942999642ZM1476.242739726740183,1172.168853694880454c0-11.754914533950796-8.502874971300116-18.881779057201129-23.633874619430571-18.881779057201129l-26.759310990290032-.125324371660099v38.26357678092063h26.384616695420846c12.254933200480082,0,24.008568914299758-6.001502818520748,24.008568914299758-19.256473352059402Z"/>
  </g>
</svg>