<?xml version="1.0" encoding="UTF-8"?>
<svg id="Layer_1" data-name="Layer 1" xmlns="http://www.w3.org/2000/svg" viewBox="0 0 1800 1800">
  <defs>
    <style>
      .cls-1 {
        opacity: .5;
      }

      .cls-2 {
        fill: #9f4e2a;
      }

      .cls-2, .cls-3, .cls-4 {
        stroke-width: 0px;
      }

      .cls-3, .cls-5 {
        fill: none;
      }

      .cls-4 {
        fill: #f0e9c5;
      }

      .cls-5 {
        stroke: #9f4e2a;
        stroke-miterlimit: 10;
      }

      .cls-6 {
        opacity: .75;
      }

      .cls-7 {
        opacity: .1;
      }

      .cls-8 {
        opacity: .25;
      }
    </style>
  </defs>
  <g class="cls-8">
    <path class="cls-5" d="M320.680842478530394,1670.184931576640338l-63.680842478530394-117.368023925250782h62.143759361719276l28.829153547521855,59.838134686520789,28.701390884358261-59.838134686520789h62.272177218030265l-63.809915527979683,117.368023925250782v89.179649272969982h-54.45572300511958v-89.179649272969982Z"/>
    <path class="cls-5" d="M547.082178338889207,1735.27574970195019h-77.135233699140372l-10.506677263878373,24.08883114766013h-59.965242156540626l95.970071021720287-206.602054229199894h26.010512640228626l96.098488878022181,206.602054229199894h-60.093660012840701l-10.378259407571022-24.08883114766013ZM529.65600627681124,1695.171377332149859l-21.141772384060459-48.946859046859572-21.269535047231329,48.946859046859572h42.411307431291789Z"/>
    <path class="cls-5" d="M859.583755693460262,1552.237061718579753v207.127519131030567h-54.840321380899695v-81.875556099000278l-55.608862939301616,78.416136296479635h-.384598375778296l-55.737280795601691-78.416136296479635v81.875556099000278h-54.839666187759576v-207.127519131030567h22.038076605629612l88.667288234040825,120.127042256390268,88.666633040889792-120.127042256390268h22.038731798780645Z"/>
    <path class="cls-5" d="M1146.45483243155104,1552.816907651389556v206.547673198220764h-54.712558717730644v-77.775357401240399h-61.374562610179055v77.775357401240399h-54.840976574041633v-206.547673198220764h54.840976574041633v77.520487268060606h61.374562610179055v-77.520487268060606h54.712558717730644Z"/>
    <path class="cls-5" d="M1180.526186327559117,1678.912104260280103v-126.095196608890546h55.224919756670715v125.966778752590471c0,17.16999154260975,14.735293817950151,28.574283414340243,30.366891857469454,28.574283414340243,15.504490569490372,0,30.623727570080518-11.659817198060409,30.623727570080518-28.574283414340243v-125.966778752590471h55.224919756670715v126.095196608890546c0,47.408465543770035-38.440181782980289,80.850834021140145-85.720229470451159,80.850834021140145-47.280047687458136,0-85.720229470440245-33.44236847737011-85.720229470440245-80.850834021140145Z"/>
    <path class="cls-5" d="M1543,1696.324517266330076c0,32.67317172580988-27.419833093879788,63.040063583280244-68.805763254160411,63.040063583280244h-88.154927195100754v-206.547673198220764h67.909459032602172c37.415459705109242,0,64.835292798979935,25.241971081840347,64.835292798979935,53.687181446730392,0,21.270190240369629-14.094514922711824,36.517845097259851-22.551748030851741,36.517845097259851,22.039386991920765,0,46.767686648530798,22.166494461929688,46.767686648530798,53.302583070950277ZM1452.283267610229814,1600.481553714629626h-13.453736027480772v32.417646399489968h13.069792844849871c11.916652910671473,0,20.884936671451214-5.894117527179333,20.884936671451214-16.5292126473596,0-9.994316224950126-8.712758434459829-15.888433752130368-20.500993488820313-15.888433752130368ZM1490.466613680600858,1689.789620843899684c0-12.045070766969729-8.712758434470743-19.347853554649191-24.21724900397021-19.347853554649191l-27.419833093881607-.128417856300075v39.208068148239363h27.035889911250706c12.5574318059098,0,24.601192186601111-6.149642853509249,24.601192186601111-19.731796737290097Z"/>
  </g>
  <g class="cls-1">
    <path class="cls-5" d="M320.680842478530394,1418.184931576640338l-63.680842478530394-117.368023925250782h62.143759361719276l28.829153547521855,59.838134686520789,28.701390884358261-59.838134686520789h62.272177218030265l-63.809915527979683,117.368023925250782v89.179649272969982h-54.45572300511958v-89.179649272969982Z"/>
    <path class="cls-5" d="M547.082178338889207,1483.27574970195019h-77.135233699140372l-10.506677263878373,24.08883114766013h-59.965242156540626l95.970071021720287-206.602054229199894h26.010512640228626l96.098488878022181,206.602054229199894h-60.093660012840701l-10.378259407571022-24.08883114766013ZM529.65600627681124,1443.171377332149859l-21.141772384060459-48.946859046859572-21.269535047231329,48.946859046859572h42.411307431291789Z"/>
    <path class="cls-5" d="M859.583755693460262,1300.237061718579753v207.127519131030567h-54.840321380899695v-81.875556099000278l-55.608862939301616,78.416136296479635h-.384598375778296l-55.737280795601691-78.416136296479635v81.875556099000278h-54.839666187759576v-207.127519131030567h22.038076605629612l88.667288234040825,120.127042256390268,88.666633040889792-120.127042256390268h22.038731798780645Z"/>
    <path class="cls-5" d="M1146.45483243155104,1300.816907651389556v206.547673198220764h-54.712558717730644v-77.775357401240399h-61.374562610179055v77.775357401240399h-54.840976574041633v-206.547673198220764h54.840976574041633v77.520487268060606h61.374562610179055v-77.520487268060606h54.712558717730644Z"/>
    <path class="cls-5" d="M1180.526186327559117,1426.912104260280103v-126.095196608890546h55.224919756670715v125.966778752590471c0,17.16999154260975,14.735293817950151,28.574283414340243,30.366891857469454,28.574283414340243,15.504490569490372,0,30.623727570080518-11.659817198060409,30.623727570080518-28.574283414340243v-125.966778752590471h55.224919756670715v126.095196608890546c0,47.408465543770035-38.440181782980289,80.850834021140145-85.720229470451159,80.850834021140145-47.280047687458136,0-85.720229470440245-33.44236847737011-85.720229470440245-80.850834021140145Z"/>
    <path class="cls-5" d="M1543,1444.324517266330076c0,32.67317172580988-27.419833093879788,63.040063583280244-68.805763254160411,63.040063583280244h-88.154927195100754v-206.547673198220764h67.909459032602172c37.415459705109242,0,64.835292798979935,25.241971081840347,64.835292798979935,53.687181446730392,0,21.270190240369629-14.094514922711824,36.517845097259851-22.551748030851741,36.517845097259851,22.039386991920765,0,46.767686648530798,22.166494461929688,46.767686648530798,53.302583070950277ZM1452.283267610229814,1348.481553714629626h-13.453736027480772v32.417646399489968h13.069792844849871c11.916652910671473,0,20.884936671451214-5.894117527179333,20.884936671451214-16.5292126473596,0-9.994316224950126-8.712758434459829-15.888433752130368-20.500993488820313-15.888433752130368ZM1490.466613680600858,1437.789620843899684c0-12.045070766969729-8.712758434470743-19.347853554649191-24.21724900397021-19.347853554649191l-27.419833093881607-.128417856300075v39.208068148239363h27.035889911250706c12.5574318059098,0,24.601192186601111-6.149642853509249,24.601192186601111-19.731796737290097Z"/>
  </g>
  <g class="cls-6">
    <path class="cls-5" d="M320.680842478530394,1166.184931576640338l-63.680842478530394-117.368023925250782h62.143759361719276l28.829153547521855,59.838134686520789,28.701390884358261-59.838134686520789h62.272177218030265l-63.809915527979683,117.368023925250782v89.179649272969982h-54.45572300511958v-89.179649272969982Z"/>
    <path class="cls-5" d="M547.082178338889207,1231.27574970195019h-77.135233699140372l-10.506677263878373,24.08883114766013h-59.965242156540626l95.970071021720287-206.602054229199894h26.010512640228626l96.098488878022181,206.602054229199894h-60.093660012840701l-10.378259407571022-24.08883114766013ZM529.65600627681124,1191.171377332149859l-21.141772384060459-48.946859046859572-21.269535047231329,48.946859046859572h42.411307431291789Z"/>
    <path class="cls-5" d="M859.583755693460262,1048.237061718579753v207.127519131030567h-54.840321380899695v-81.875556099000278l-55.608862939301616,78.416136296479635h-.384598375778296l-55.737280795601691-78.416136296479635v81.875556099000278h-54.839666187759576v-207.127519131030567h22.038076605629612l88.667288234040825,120.127042256390268,88.666633040889792-120.127042256390268h22.038731798780645Z"/>
    <path class="cls-5" d="M1146.45483243155104,1048.816907651389556v206.547673198220764h-54.712558717730644v-77.775357401240399h-61.374562610179055v77.775357401240399h-54.840976574041633v-206.547673198220764h54.840976574041633v77.520487268060606h61.374562610179055v-77.520487268060606h54.712558717730644Z"/>
    <path class="cls-5" d="M1180.526186327559117,1174.912104260280103v-126.095196608890546h55.224919756670715v125.966778752590471c0,17.16999154260975,14.735293817950151,28.574283414340243,30.366891857469454,28.574283414340243,15.504490569490372,0,30.623727570080518-11.659817198060409,30.623727570080518-28.574283414340243v-125.966778752590471h55.224919756670715v126.095196608890546c0,47.408465543770035-38.440181782980289,80.850834021140145-85.720229470451159,80.850834021140145-47.280047687458136,0-85.720229470440245-33.44236847737011-85.720229470440245-80.850834021140145Z"/>
    <path class="cls-5" d="M1543,1192.324517266330076c0,32.67317172580988-27.419833093879788,63.040063583280244-68.805763254160411,63.040063583280244h-88.154927195100754v-206.547673198220764h67.909459032602172c37.415459705109242,0,64.835292798979935,25.241971081840347,64.835292798979935,53.687181446730392,0,21.270190240369629-14.094514922711824,36.517845097259851-22.551748030851741,36.517845097259851,22.039386991920765,0,46.767686648530798,22.166494461929688,46.767686648530798,53.302583070950277ZM1452.283267610229814,1096.481553714629626h-13.453736027480772v32.417646399489968h13.069792844849871c11.916652910671473,0,20.884936671451214-5.894117527179333,20.884936671451214-16.5292126473596,0-9.994316224950126-8.712758434459829-15.888433752130368-20.500993488820313-15.888433752130368ZM1490.466613680600858,1185.789620843899684c0-12.045070766969729-8.712758434470743-19.347853554649191-24.21724900397021-19.347853554649191l-27.419833093881607-.128417856300075v39.208068148239363h27.035889911250706c12.5574318059098,0,24.601192186601111-6.149642853509249,24.601192186601111-19.731796737290097Z"/>
  </g>
  <g class="cls-1">
    <path class="cls-5" d="M320.680842478530394,914.184931576641247l-63.680842478530394-117.368023925249872h62.143759361719276l28.829153547521855,59.83813468651897,28.701390884358261-59.83813468651897h62.272177218030265l-63.809915527979683,117.368023925249872v89.179649272969073h-54.45572300511958v-89.179649272969073Z"/>
    <path class="cls-5" d="M547.082178338889207,979.275749701952009h-77.135233699140372l-10.506677263878373,24.088831147658311h-59.965242156540626l95.970071021720287-206.602054229204441h26.010512640228626l96.098488878022181,206.602054229204441h-60.093660012840701l-10.378259407571022-24.088831147658311ZM529.65600627681124,939.171377332150769l-21.141772384060459-48.946859046861391-21.269535047231329,48.946859046861391h42.411307431291789Z"/>
    <path class="cls-5" d="M859.583755693460262,796.2370617185843v207.12751913102602h-54.840321380899695v-81.875556099002097l-55.608862939301616,78.416136296476907h-.384598375778296l-55.737280795601691-78.416136296476907v81.875556099002097h-54.839666187759576v-207.12751913102602h22.038076605629612l88.667288234040825,120.127042256390268,88.666633040889792-120.127042256390268h22.038731798780645Z"/>
    <path class="cls-5" d="M1146.45483243155104,796.816907651391375v206.547673198218945h-54.712558717730644v-77.77535740123767h-61.374562610179055v77.77535740123767h-54.840976574041633v-206.547673198218945h54.840976574041633v77.520487268060606h61.374562610179055v-77.520487268060606h54.712558717730644Z"/>
    <path class="cls-5" d="M1180.526186327559117,922.912104260283741v-126.095196608892365h55.224919756670715v125.966778752585924c0,17.16999154260975,14.735293817950151,28.574283414342062,30.366891857469454,28.574283414342062,15.504490569490372,0,30.623727570080518-11.659817198057681,30.623727570080518-28.574283414342062v-125.966778752585924h55.224919756670715v126.095196608892365c0,47.408465543769125-38.440181782980289,80.850834021136507-85.720229470451159,80.850834021136507-47.280047687458136,0-85.720229470440245-33.442368477367381-85.720229470440245-80.850834021136507Z"/>
    <path class="cls-5" d="M1543,940.324517266327348c0,32.673171725818065-27.419833093879788,63.040063583282972-68.805763254160411,63.040063583282972h-88.154927195100754v-206.547673198218945h67.909459032602172c37.415459705109242,0,64.835292798979935,25.24197108183489,64.835292798979935,53.687181446724935,0,21.270190240373267-14.094514922711824,36.517845097259851-22.551748030851741,36.517845097259851,22.039386991920765,0,46.767686648530798,22.166494461936963,46.767686648530798,53.302583070951187ZM1452.283267610229814,844.481553714631445h-13.453736027480772v32.417646399492696h13.069792844849871c11.916652910671473,0,20.884936671451214-5.894117527182061,20.884936671451214-16.529212647367785,0-9.994316224946488-8.712758434459829-15.888433752124911-20.500993488820313-15.888433752124911ZM1490.466613680600858,933.789620843904231c0-12.045070766972458-8.712758434470743-19.347853554650101-24.21724900397021-19.347853554650101l-27.419833093881607-.128417856306442v39.208068148237544h27.035889911250706c12.5574318059098,0,24.601192186601111-6.149642853502883,24.601192186601111-19.731796737281002Z"/>
  </g>
  <g>
    <path class="cls-2" d="M320.680842478530394,1415.184931576640338l-63.680842478530394-117.368023925250782h62.143759361719276l28.829153547521855,59.838134686520789,28.701390884358261-59.838134686520789h62.272177218030265l-63.809915527979683,117.368023925250782v89.179649272969982h-54.45572300511958v-89.179649272969982Z"/>
    <path class="cls-2" d="M547.082178338889207,1480.27574970195019h-77.135233699140372l-10.506677263878373,24.08883114766013h-59.965242156540626l95.970071021720287-206.602054229199894h26.010512640228626l96.098488878022181,206.602054229199894h-60.093660012840701l-10.378259407571022-24.08883114766013ZM529.65600627681124,1440.171377332149859l-21.141772384060459-48.946859046859572-21.269535047231329,48.946859046859572h42.411307431291789Z"/>
    <path class="cls-2" d="M859.583755693460262,1297.237061718579753v207.127519131030567h-54.840321380899695v-81.875556099000278l-55.608862939301616,78.416136296479635h-.384598375778296l-55.737280795601691-78.416136296479635v81.875556099000278h-54.839666187759576v-207.127519131030567h22.038076605629612l88.667288234040825,120.127042256390268,88.666633040889792-120.127042256390268h22.038731798780645Z"/>
    <path class="cls-2" d="M1146.45483243155104,1297.816907651389556v206.547673198220764h-54.712558717730644v-77.775357401240399h-61.374562610179055v77.775357401240399h-54.840976574041633v-206.547673198220764h54.840976574041633v77.520487268060606h61.374562610179055v-77.520487268060606h54.712558717730644Z"/>
    <path class="cls-2" d="M1180.526186327559117,1423.912104260280103v-126.095196608890546h55.224919756670715v125.966778752590471c0,17.16999154260975,14.735293817950151,28.574283414340243,30.366891857469454,28.574283414340243,15.504490569490372,0,30.623727570080518-11.659817198060409,30.623727570080518-28.574283414340243v-125.966778752590471h55.224919756670715v126.095196608890546c0,47.408465543770035-38.440181782980289,80.850834021140145-85.720229470451159,80.850834021140145-47.280047687458136,0-85.720229470440245-33.44236847737011-85.720229470440245-80.850834021140145Z"/>
    <path class="cls-2" d="M1543,1441.324517266330076c0,32.67317172580988-27.419833093879788,63.040063583280244-68.805763254160411,63.040063583280244h-88.154927195100754v-206.547673198220764h67.909459032602172c37.415459705109242,0,64.835292798979935,25.241971081840347,64.835292798979935,53.687181446730392,0,21.270190240369629-14.094514922711824,36.517845097259851-22.551748030851741,36.517845097259851,22.039386991920765,0,46.767686648530798,22.166494461929688,46.767686648530798,53.302583070950277ZM1452.283267610229814,1345.481553714629626h-13.453736027480772v32.417646399489968h13.069792844849871c11.916652910671473,0,20.884936671451214-5.894117527179333,20.884936671451214-16.5292126473596,0-9.994316224950126-8.712758434459829-15.888433752130368-20.500993488820313-15.888433752130368ZM1490.466613680600858,1434.789620843899684c0-12.045070766969729-8.712758434470743-19.347853554649191-24.21724900397021-19.347853554649191l-27.419833093881607-.128417856300075v39.208068148239363h27.035889911250706c12.5574318059098,0,24.601192186601111-6.149642853509249,24.601192186601111-19.731796737290097Z"/>
  </g>
  <g class="cls-1">
    <path class="cls-5" d="M320.680842478530394,662.184931576641247l-63.680842478530394-117.368023925249872h62.143759361719276l28.829153547521855,59.83813468651897,28.701390884358261-59.83813468651897h62.272177218030265l-63.809915527979683,117.368023925249872v89.179649272969982h-54.45572300511958v-89.179649272969982Z"/>
    <path class="cls-5" d="M547.082178338889207,727.275749701952009h-77.135233699140372l-10.506677263878373,24.088831147659221h-59.965242156540626l95.970071021720287-206.602054229205351h26.010512640228626l96.098488878022181,206.602054229205351h-60.093660012840701l-10.378259407571022-24.088831147659221ZM529.65600627681124,687.171377332150769l-21.141772384060459-48.946859046861391-21.269535047231329,48.946859046861391h42.411307431291789Z"/>
    <path class="cls-5" d="M859.583755693460262,544.2370617185843v207.127519131026929h-54.840321380899695v-81.875556099003006l-55.608862939301616,78.416136296476907h-.384598375778296l-55.737280795601691-78.416136296476907v81.875556099003006h-54.839666187759576v-207.127519131026929h22.038076605629612l88.667288234040825,120.127042256390268,88.666633040889792-120.127042256390268h22.038731798780645Z"/>
    <path class="cls-5" d="M1146.45483243155104,544.816907651391375v206.547673198219854h-54.712558717730644v-77.77535740123858h-61.374562610179055v77.77535740123858h-54.840976574041633v-206.547673198219854h54.840976574041633v77.520487268060606h61.374562610179055v-77.520487268060606h54.712558717730644Z"/>
    <path class="cls-5" d="M1180.526186327559117,670.912104260283741v-126.095196608892365h55.224919756670715v125.966778752585924c0,17.16999154260975,14.735293817950151,28.574283414342062,30.366891857469454,28.574283414342062,15.504490569490372,0,30.623727570080518-11.659817198057681,30.623727570080518-28.574283414342062v-125.966778752585924h55.224919756670715v126.095196608892365c0,47.408465543769125-38.440181782980289,80.850834021131959-85.720229470451159,80.850834021131959-47.280047687458136,0-85.720229470440245-33.442368477362834-85.720229470440245-80.850834021131959Z"/>
    <path class="cls-5" d="M1543,688.324517266327348c0,32.673171725818065-27.419833093879788,63.040063583283882-68.805763254160411,63.040063583283882h-88.154927195100754v-206.547673198219854h67.909459032602172c37.415459705109242,0,64.835292798979935,25.24197108183489,64.835292798979935,53.687181446724935,0,21.270190240373267-14.094514922711824,36.517845097259851-22.551748030851741,36.517845097259851,22.039386991920765,0,46.767686648530798,22.166494461936963,46.767686648530798,53.302583070951187ZM1452.283267610229814,592.481553714631445h-13.453736027480772v32.417646399492696h13.069792844849871c11.916652910671473,0,20.884936671451214-5.894117527182061,20.884936671451214-16.529212647367785,0-9.994316224946488-8.712758434459829-15.888433752124911-20.500993488820313-15.888433752124911ZM1490.466613680600858,681.789620843904231c0-12.045070766972458-8.712758434470743-19.347853554650101-24.21724900397021-19.347853554650101l-27.419833093881607-.128417856306442v39.208068148237544h27.035889911250706c12.5574318059098,0,24.601192186601111-6.149642853502883,24.601192186601111-19.731796737281002Z"/>
  </g>
  <g class="cls-8">
    <path class="cls-5" d="M320.680842478530394,410.184931576641247l-63.680842478530394-117.368023925249872h62.143759361719276l28.829153547521855,59.83813468651897,28.701390884358261-59.83813468651897h62.272177218030265l-63.809915527979683,117.368023925249872v89.179649272969982h-54.45572300511958v-89.179649272969982Z"/>
    <path class="cls-5" d="M547.082178338889207,475.275749701952009h-77.135233699140372l-10.506677263878373,24.088831147659221h-59.965242156540626l95.970071021720287-206.602054229205351h26.010512640228626l96.098488878022181,206.602054229205351h-60.093660012840701l-10.378259407571022-24.088831147659221ZM529.65600627681124,435.171377332150769l-21.141772384060459-48.946859046861391-21.269535047231329,48.946859046861391h42.411307431291789Z"/>
    <path class="cls-5" d="M859.583755693460262,292.2370617185843v207.127519131026929h-54.840321380899695v-81.875556099003006l-55.608862939301616,78.416136296476907h-.384598375778296l-55.737280795601691-78.416136296476907v81.875556099003006h-54.839666187759576v-207.127519131026929h22.038076605629612l88.667288234040825,120.127042256390268,88.666633040889792-120.127042256390268h22.038731798780645Z"/>
    <path class="cls-5" d="M1146.45483243155104,292.816907651391375v206.547673198219854h-54.712558717730644v-77.77535740123858h-61.374562610179055v77.77535740123858h-54.840976574041633v-206.547673198219854h54.840976574041633v77.520487268060606h61.374562610179055v-77.520487268060606h54.712558717730644Z"/>
    <path class="cls-5" d="M1180.526186327559117,418.912104260283741v-126.095196608892365h55.224919756670715v125.966778752585924c0,17.16999154260975,14.735293817950151,28.574283414341153,30.366891857469454,28.574283414341153,15.504490569490372,0,30.623727570080518-11.659817198056771,30.623727570080518-28.574283414341153v-125.966778752585924h55.224919756670715v126.095196608892365c0,47.408465543769125-38.440181782980289,80.850834021131959-85.720229470451159,80.850834021131959-47.280047687458136,0-85.720229470440245-33.442368477362834-85.720229470440245-80.850834021131959Z"/>
    <path class="cls-5" d="M1543,436.324517266326438c0,32.673171725818975-27.419833093879788,63.040063583284791-68.805763254160411,63.040063583284791h-88.154927195100754v-206.547673198219854h67.909459032602172c37.415459705109242,0,64.835292798979935,25.24197108183489,64.835292798979935,53.687181446724935,0,21.270190240373267-14.094514922711824,36.517845097259851-22.551748030851741,36.517845097259851,22.039386991920765,0,46.767686648530798,22.166494461936963,46.767686648530798,53.302583070950277ZM1452.283267610229814,340.481553714631445h-13.453736027480772v32.417646399492696h13.069792844849871c11.916652910671473,0,20.884936671451214-5.894117527182061,20.884936671451214-16.529212647369604,0-9.994316224944669-8.712758434459829-15.888433752123092-20.500993488820313-15.888433752123092ZM1490.466613680600858,429.789620843904231c0-12.045070766972458-8.712758434470743-19.347853554650101-24.21724900397021-19.347853554650101l-27.419833093881607-.128417856306442v39.208068148237544h27.035889911250706c12.5574318059098,0,24.601192186601111-6.149642853504702,24.601192186601111-19.731796737281002Z"/>
  </g>
  <g class="cls-7">
    <path class="cls-5" d="M320.680842478530394,158.184931576641247l-63.680842478530394-117.368023925249872h62.143759361719276l28.829153547521855,59.83813468651897,28.701390884358261-59.83813468651897h62.272177218030265l-63.809915527979683,117.368023925249872v89.179649272969982h-54.45572300511958v-89.179649272969982Z"/>
    <path class="cls-5" d="M547.082178338889207,223.275749701952009h-77.135233699140372l-10.506677263878373,24.088831147659221h-59.965242156540626l95.970071021720287-206.602054229205351h26.010512640228626l96.098488878022181,206.602054229205351h-60.093660012840701l-10.378259407571022-24.088831147659221ZM529.65600627681124,183.171377332150769l-21.141772384060459-48.946859046861391-21.269535047231329,48.946859046861391h42.411307431291789Z"/>
    <path class="cls-5" d="M859.583755693460262,40.2370617185843v207.127519131026929h-54.840321380899695v-81.875556099003006l-55.608862939301616,78.416136296476907h-.384598375778296l-55.737280795601691-78.416136296476907v81.875556099003006h-54.839666187759576V40.2370617185843h22.038076605629612l88.667288234040825,120.127042256390268,88.666633040889792-120.127042256390268h22.038731798780645Z"/>
    <path class="cls-5" d="M1146.45483243155104,40.816907651391375v206.547673198219854h-54.712558717730644v-77.77535740123858h-61.374562610179055v77.77535740123858h-54.840976574041633V40.816907651391375h54.840976574041633v77.520487268060606h61.374562610179055V40.816907651391375h54.712558717730644Z"/>
    <path class="cls-5" d="M1180.526186327559117,166.912104260283741V40.816907651391375h55.224919756670715v125.966778752585924c0,17.16999154260975,14.735293817950151,28.574283414341153,30.366891857469454,28.574283414341153,15.504490569490372,0,30.623727570080518-11.659817198056771,30.623727570080518-28.574283414341153V40.816907651391375h55.224919756670715v126.095196608892365c0,47.408465543769125-38.440181782980289,80.850834021131959-85.720229470451159,80.850834021131959-47.280047687458136,0-85.720229470440245-33.442368477362834-85.720229470440245-80.850834021131959Z"/>
    <path class="cls-5" d="M1543,184.324517266326438c0,32.673171725818975-27.419833093879788,63.040063583284791-68.805763254160411,63.040063583284791h-88.154927195100754V40.816907651391375h67.909459032602172c37.415459705109242,0,64.835292798979935,25.24197108183489,64.835292798979935,53.687181446724935,0,21.270190240373267-14.094514922711824,36.517845097259851-22.551748030851741,36.517845097259851,22.039386991920765,0,46.767686648530798,22.166494461936963,46.767686648530798,53.302583070950277ZM1452.283267610229814,88.481553714630536h-13.453736027480772v32.417646399493606h13.069792844849871c11.916652910671473,0,20.884936671451214-5.894117527182061,20.884936671451214-16.529212647368695,0-9.994316224945578-8.712758434459829-15.888433752124911-20.500993488820313-15.888433752124911ZM1490.466613680600858,177.789620843904231c0-12.045070766972458-8.712758434470743-19.347853554650101-24.21724900397021-19.347853554650101l-27.419833093881607-.128417856306442v39.208068148237544h27.035889911250706c12.5574318059098,0,24.601192186601111-6.149642853504702,24.601192186601111-19.731796737281002Z"/>
  </g>
  <g>
    <g>
      <path class="cls-4" d="M1045.759731940808706,742.292182792905805c-1.629408745598994-19.0412284813101-3.929807856628031-37.060664020189506-4.504858884718487-55.14327912268709-.44732691029094-13.865964227110453-7.092491011821039-16.932903043612896-19.360831273790609-15.846370548344566-23.801730600289375,2.076345658578248-47.986828552639054,5.271203591542871-72.587078637508966,4.983775576818516-3.514460725451499-.031979779114408-6.134267630321119-.063959558226998-8.147043727980417-.447326910292759-14.089237684949694-1.214061614413367-20.383209212179281-6.101897853890478-23.737771042060558-13.738045110651001l17.507954071710628-1.117732279767552c23.737771042060558-1.94920653673671,47.539306643700911-3.866043297050965,72.075987167650965-5.878819394708444-.990398159272445-.223858453800858-.702970144549909-.287428014718898,1.501489629128628-.095939337343225,6.325756307691336-.542876250327026,12.747451952720439-1.054162718848602,19.201127376880322-1.565449187366539,2.971194477820973-2.364163670607013,3.035154036038875-6.133877633008524,2.20445977368945-9.520614240651412-.958418380148942-2.39614344972324-1.917031758959638-4.728327341215845-2.843470359999628-6.996551674479633-.191683676039247-.319797791142264-.319407793849678-.543266247632346-.383367352071218-.639205584975571l.159703896912106.127919116459452c-3.801888740170398-9.233186225936151-7.220410128269577-17.635483190861123-10.383288282111607-26.069954933553163-5.495062045349187-14.696268492158197-14.217156801409146-19.520535170713629-30.926201391219365-17.795187087775048-26.006190373980644,2.651591685329549-52.523472217821109,2.140695214111474-78.721346267841.958223381501739-21.56529104747824-.990203160616147-29.52045610076857-7.667347041260655-32.747293812837597-18.753410469280425h116.133202862307371c1.246041393522319-2.939799694655449.766734704131522-6.996941671783134-.095939337337768-10.479227619462108-14.344880919212301-10.926554529754867-28.082731031210642-22.939251557472744-43.673653343950718-31.501642416622417-19.424790832021245-10.67071629684142-39.616316368181288-10.830225195104504-57.060115882999526,7.028921450897542-20.127565977920312,20.60667766867482-40.830377982591017,40.702458866134293-61.277351754350093,60.989728740973078-1.086337496610213,1.246041393531414-6.741298437520527,8.083084169742506-1.949011538079503,12.971310406524935l91.181370205838903,8.977347993019066c-4.281195429579384,9.999725931409557-12.843391290080035,15.430828418517194-34.376702558440229,14.249136580525374-19.009443700861084-1.05455271615574-38.114631740389086-2.492082787066465-56.964371544319874-5.112084690584197-1.405745290450795-.159898895571132-2.811490580899772-.287428014721627-4.185256092228883-.414957133870303-15.07963584422032-1.661388524710674-20.894300682051835,2.523672568868278-22.811332441022387,19.456185615175855l58.40209661388144,3.354756828532118c-3.89782807751908,10.191409607434252-12.204380703749848,15.9742896648022-33.801651530349773,15.622902091854485-5.910409176511166-.127529119152314-11.821013351680449-.255448235606309-17.73142252820071-.44732691029094-.351387572949534.031979779112589-.702970144549909.031979779112589-1.086337496608394.063959558225179-16.102013782610811.67079536678466-22.076382517350794,7.73130659949129-24.280842291042063,12.364084600665592-5.463277264880162,16.836963706273309-8.78585931564885,34.56819123581954-13.258738421249291,53.034563687686386,94.599891593939901,2.108715434998885,185.174035993910366,20.766576564245042,278.527886194318853,7.380309023847076Z"/>
      <path class="cls-4" d="M1074.161870765859931,965.325402291589853c23.322423910880389-3.77010395970683,30.191446466200432-18.59429156832266,31.948384330949921-29.776294333685655.319797791140445-13.13081930478802-.159508898268541-26.677375738063347-.159508898268541-41.181765555536913-131.116899369182647,47.475542084115659-260.253197418482159,29.616395438111795-390.379698628401457-2.971389476468175-7.380114025190778,32.236397341632255-1.725153084278645,61.756853442404463,4.504858884720306,91.373248880516257,2.555847346638984,12.140226146868372,8.913583433450185,18.210534218954308,21.533311268371108,19.775983406324485,34.760069910498714,4.344959989150084,69.296476365858325,10.319328723890067,104.088331056827883,14.248941581859981,1.7891126425111.191878674690088,3.546440504560451.383757349370171,5.303573367949866.575246026750392l44.440388048082241,2.68357146443941c-3.833673520632146,10.255369165670345-12.108441366410261,16.070229002150882-33.737691972110042,15.654881870970712-1.852877202090895-.03197977911077-3.769908961061446-.255448235609947-5.686745721381158-.479306689399891v.031979779109861c-21.14994391629989-1.757327862050261-42.268103052148945-3.737734183289831-63.386067189339883-5.846449618290535-17.827361865540297-1.82089742297012-35.462845056399601-5.559021603569818-53.833278170930498-8.498431300919947,4.728327341221302,30.415109921350449,8.146848729320482,34.504621674900591,33.51402851696912,38.338295195530009,25.558863463691523,3.833673520630327,51.181686485600949,7.188430349159717,76.772334729750582,10.894574750640459l44.15296003335061,5.622981161799544c-4.057336975780345,9.552594019760363-14.153197243171235,16.74102436892008-30.223231246671276,14.983696506869819v.031979779109861c-22.779352661898884-1.437530070899811-45.430981205998251-7.987144832389276-68.817364675098361-10.478837622149513-11.118043207141454-.735144922319705-23.929454718101624.638815587670251-17.092411941881437,12.523593498930495,1.022377938381396,1.469509850029681,2.044755876760973,2.939019700049357,3.098918595611394,4.408919547369806.031979779119865.063959558239731.063959558239731.095939337349591.095939337339587.159508898269451,15.07963584422032,21.629250605709785,29.488476321661437,43.162561874079984,46.421184366630769,62.491608367420667,16.509755966299053,18.86826467596984,35.045352940040175,36.032046124899352,51.003652715280623,54.230295428709724,18.142869686307677,17.971270871549677,39.06661516497843,17.705292708669731,59.176631264128446,6.655304031490232.964268339750561-.542486253030802,1.928926676810079-1.085167504700621,2.863360222620031-1.627653757720509,2.862970225331082-1.687713342879761,5.635461075609783-3.435486270929687,8.408536921830091-5.274128571340043.904013755940468-.602545838190053,1.807832513219182-1.205286675030038,2.712236266459513-1.83825230309958.732999937130444-.521426398480799,1.454884951039276-1.034467854879949,2.18320492050043-1.547704309929941,21.254073197080288-28.216695105909821,42.404212112040113-56.292796182910024,63.139588891779567-83.792481241250243-18.178749438498926,0-38.178591298608808.319407793839673-58.593780289920687.031979779119865l-37.986907622569561.287428014719808c3.09911359427133-10.606756738619879,10.958339310222073-17.092411941879618,32.555610136811083-18.178554439849904,3.06713381516056-.159898895570223,12.140421145530127.60683580856039,17.31607539703873.798714483250478,14.185177022282005-.127919116460362,28.338569264111356-.255838232910719,42.491766507289867-.830694262360339,14.568544374360499-1.757327862050261,27.47570022400032-11.213982544470127,36.74086622905088-20.255290095719829,9.264971006390624-9.041307551259706,14.887952168190168-17.66765796863001,14.887952168190168-17.66765796863001,6.102287851199435-9.361105342390147,11.757053793449813-18.977658920380236,16.804983927149806-28.849660733990277,9.137246888589289-17.987065762459679,14.440820256560983-37.922948064349839,22.747372882789932-60.57438160978927-4.281195429579384.447326910289121-8.146848729320482.830694262351244-11.693094235219178,1.214061614415186-1.150297054849943.095939337339587-2.268419331920086.22385845379722-3.354756828539394.351387572945896h-.12772411781043c-2.236439552800221.223468456495539-4.376939768251759.44732691029094-6.421695645030923.671185364093617-2.076540657240912.22346845649372-4.057531974429367.414957133869393-5.974368734749078.638815587668432-2.491887788401073.255448235606309-4.88803123812977.542876250328845-7.284174687851191.862674041467471-36.772846008148917,4.632388003870801-73.449947677629098,9.903981592717173-110.318538024479494,13.642105773313233-.351387572940439.031979779112589-.702775145899068,0-1.054357717499443,0-19.232912157329338,1.277631175335955-27.347976106191709-3.930002855280691-31.756895653570609-13.482596875050149l29.169068527819036-4.089121756233908c1.565449187371996-.255838232912538,3.131093373380281-.511676465825985,4.728522339872143-.703165143207116,2.17247999457868-.287428014718898,4.344959989150084-.575246026746754,6.517439983719669-.862284044160333l3.705949402828992-.511676465825076v.031979779114408c34.951753586541599-4.600408224756393,69.967466731301101-8.945368213906477,104.855260759610246-13.897164011612404Z"/>
      <path class="cls-4" d="M733.430389214800016,876.98711244846163c121.979652480598816,30.255601023093732,244.023264519420991,46.069991792321161,368.431040228850179-1.277631175338684-7.827440935490813-37.635520049629122-30.287385803540019-65.973894315095094-47.347817966299772-96.996230042312163-6.805062997100322-12.363694603358454-15.974289664811295-15.399043638055446-29.616395438129985-15.590532315434757-53.897237729141125-.798714483238655-107.762495679189669-2.875450139124951-161.627948627881779-4.920206015895019-24.248862511929474-.926633599696288-48.465940243389923-3.674164622367243-72.714802755308483-3.897633078859144-6.517634982381423-.063959558226998-15.782605988781143,4.312980210035676-19.04142347996094,9.584573798882047-5.814664837827877,9.360715345081189-8.019124611519146,20.958065241623444-13.578146215088054,36.996314464651732,39.456417472600151,6.102287851201254,77.986396344167588,12.076656585944875,116.292906759219477,17.987065762463317l62.555177928348712,8.625960420067713c-4.82426667855907,10.000310927367536-13.641910774658754,15.207554960680682-35.143437262569932,13.195168860329431-22.747372882789932-2.109105432308752-45.654449662488332-4.792286899443752-67.954495634989144-9.48902445884778-13.769829891109111-1.884856981198936-27.507875001771026-4.057141977122228-41.117805997299001-6.741103438869686-54.440503976791661-10.798635413302691-55.75030992990105-12.428044158894409-70.638457096751154,38.242355858183146-.575051028090456,4.313370207342814.670990365450052,10.830615192413461,11.501605557859875,14.280921360979846Z"/>
    </g>
    <g>
      <path class="cls-3" d="M733.430397157750122,876.98711244846163c121.979652480600635,30.255601023093732,244.023264519410077,46.069991792321161,368.431040228850179-1.277631175338684-7.827440935488994-37.635520049629122-30.287385803549114-65.973894315095094-47.347817966310686-96.996230042312163-6.805062997109417-12.363694603358454-15.974289664809476-15.399043638055446-29.616395438129985-15.590532315434757-53.897237729139306-.798714483238655-107.762495679180574-2.875450139124951-161.627948627869046-4.920206015895019-24.248862511929474-.926633599696288-48.465940243389923-3.674164622367243-72.714802755310302-3.897633078859144-6.517634982379604-.063959558226998-15.782605988779324,4.312980210035676-19.041423479959121,9.584573798882047-5.814664837831515,9.360715345081189-8.019124611520965,20.958065241623444-13.578146215091692,36.996314464651732,39.456417472611065,6.102287851201254,77.986396344160312,12.076656585944875,116.292906759230391,17.987065762463317l62.555177928330522,8.625960420067713c-4.824266678549975,10.000310927367536-13.641910774651478,15.207554960680682-35.143437262559019,13.195168860329431-22.747372882782656-2.109105432308752-45.65444966249197-4.792286899443752-67.954495634990963-9.48902445884778-13.76982989111093-1.884856981198936-27.507875001760112-4.057141977122228-41.117805997311734-6.741103438869686-54.440503976778928-10.798635413302691-55.750309929888317-12.428044158894409-70.638457096727507,38.242355858183146-.575051028092275,4.313370207342814.670990365439138,10.830615192413461,11.501605557848961,14.280921360979846Z"/>
      <path class="cls-3" d="M1045.759739883760631,742.292182792905805c-1.629408745600813-19.0412284813101-3.929807856631669-37.060664020189506-4.504858884720306-55.14327912268709-.447326910300035-13.865964227110453-7.092491011810125-16.932903043612896-19.360831273790609-15.846370548344566-23.801730600300289,2.076345658578248-47.986828552649968,5.271203591542871-72.587078637528975,4.983775576818516-3.514460725429672-.031979779114408-6.134267630310205-.063959558226998-8.147043727960408-.447326910292759-14.089237684951513-1.214061614413367-20.3832092121811-6.101897853890478-23.737771042060558-13.738045110651001l17.507954071699714-1.117732279767552c23.737771042060558-1.94920653673671,47.539306643700911-3.866043297050965,72.07598716766006-5.878819394708444-.990398159268807-.223858453800858-.702970144560823-.287428014718898,1.501489629121352-.095939337343225,6.325756307698612-.542876250327026,12.747451952738629-1.054162718848602,19.201127376889417-1.565449187366539,2.971194477810059-2.364163670607013,3.035154036040694-6.133877633008524,2.204459773680355-9.520614240651412-.958418380150761-2.39614344972324-1.917031758959638-4.728327341215845-2.843470359999628-6.996551674479633-.191683676031971-.319797791142264-.319407793842402-.543266247632346-.383367352071218-.639205584975571l.159703896919382.127919116459452c-3.801888740170398-9.233186225936151-7.220410128280491-17.635483190861123-10.383288282118883-26.069954933553163-5.495062045340092-14.696268492158197-14.217156801400051-19.520535170713629-30.92620139121027-17.795187087775048-26.006190373989739,2.651591685329549-52.523472217830204,2.140695214111474-78.721346267839181.958223381501739-21.565291047481878-.990203160616147-29.520456100770389-7.667347041260655-32.747293812841235-18.753410469280425h116.133202862300095c1.246041393540509-2.939799694655449.766734704140617-6.996941671783134-.095939337330492-10.479227619462108-14.344880919208663-10.926554529754867-28.082731031208823-22.939251557472744-43.673653343948899-31.501642416622417-19.424790832019426-10.67071629684142-39.616316368179469-10.830225195104504-57.060115883001345,7.028921450897542-20.127565977920312,20.60667766867482-40.830377982589198,40.702458866134293-61.277351754350093,60.989728740973078-1.086337496610213,1.246041393531414-6.741298437518708,8.083084169742506-1.949011538079503,12.971310406524935l91.181370205831627,8.977347993019066c-4.281195429581203,9.999725931409557-12.843391290061845,15.430828418517194-34.376702558442048,14.249136580525374-19.009443700848351-1.05455271615574-38.114631740369077-2.492082787066465-56.96437154430896-5.112084690584197-1.405745290439882-.159898895571132-2.811490580890677-.287428014721627-4.185256092230702-.414957133870303-15.07963584422032-1.661388524710674-20.894300682039102,2.523672568868278-22.811332441018749,19.456185615175855l58.402096613879621,3.354756828532118c-3.897828077509985,10.191409607434252-12.204380703749848,15.9742896648022-33.801651530349773,15.622902091854485-5.910409176509347-.127529119152314-11.821013351680449-.255448235606309-17.73142252820071-.44732691029094-.351387572949534.031979779112589-.702970144549909.031979779112589-1.086337496610213.063959558225179-16.102013782608992.67079536678466-22.076382517348975,7.73130659949129-24.280842291038425,12.364084600665592-5.463277264880162,16.836963706273309-8.785859315641574,34.56819123581954-13.25873842125111,53.034563687686386,94.599891593939901,2.108715434998885,185.174035993910366,20.766576564245042,278.527886194320672,7.380309023847076Z"/>
      <path class="cls-3" d="M1074.161878708800941,965.325402291589853c23.32242391087857-3.77010395970683,30.191446466207708-18.59429156832266,31.948384330949921-29.776294333685655.319797791140445-13.13081930478802-.159508898261265-26.677375738063347-.159508898261265-41.181765555536913-131.116899369189923,47.475542084115659-260.253197418478521,29.616395438111795-390.379698628399638-2.971389476468175-7.380114025199873,32.236397341632255-1.725153084280464,61.756853442404463,4.504858884720306,91.373248880516257,2.555847346640803,12.140226146868372,8.913583433450185,18.210534218954308,21.533311268369289,19.775983406324485,34.760069910509628,4.344959989150084,69.296476365860144,10.319328723890067,104.088331056831521,14.248941581859981,1.789112642509281.191878674690088,3.546440504558632.383757349370171,5.303573367958961.575246026750392l44.440388048069508,2.68357146443941c-3.833673520628508,10.255369165670345-12.108441366410261,16.070229002150882-33.737691972119137,15.654881870970712-1.852877202079981-.03197977911077-3.769908961059627-.255448235609947-5.686745721361149-.479306689399891v.031979779109861c-21.149943916319899-1.757327862050261-42.268103052148945-3.737734183289831-63.386067189348978-5.846449618290535-17.827361865551211-1.82089742297012-35.46284505640142-5.559021603569818-53.833278170930498-8.498431300919947,4.728327341219483,30.415109921350449,8.146848729320482,34.504621674900591,33.514028516970939,38.338295195530009,25.558863463689704,3.833673520630327,51.181686485608225,7.188430349159717,76.772334729750582,10.894574750640459l44.152960033348791,5.622981161799544c-4.057336975780345,9.552594019760363-14.153197243169416,16.74102436892008-30.223231246660362,14.983696506869819v.031979779109861c-22.779352661900703-1.437530070899811-45.43098120600007-7.987144832389276-68.817364675111094-10.478837622149513-11.118043207137816-.735144922319705-23.929454718088891.638815587670251-17.092411941877799,12.523593498930495,1.022377938388672,1.469509850029681,2.044755876770068,2.939019700049357,3.098918595609575,4.408919547369806.031979779119865.063959558239731.063959558228817.095939337349591.095939337348682.159508898269451,15.07963584422032,21.629250605709785,29.488476321661437,43.162561874079984,46.42118436661076,62.491608367420667,12.399964352849565,14.171332117909515,25.913371015090888,27.391850803149282,38.634693148300357,40.807953137479672.000974993259661-.000584995959798.015989889559933-.008969938050541.015989889559933-.008969938050541.040754718500466.055574616149897.082094432958911.101009302330567.122849151470291.156388919820529,4.447724279360045,4.693422582299718,8.786639310250393,9.418434946410343,12.950445550639415,14.211501840460187,34.287393175300167,29.546585920289544,68.860654376099774-.203773592530524,79.370886781411173-10.871954906880092,19.651379266968434-26.088089808289624,39.20408921544913-52.04163054592027,58.392346681230265-77.489539775970115-18.178749438502564,0-38.178591298612446.319407793839673-58.593780289920687.031979779119865l-37.986907622569561.287428014719808c3.099113594267692-10.606756738619879,10.958339310218435-17.092411941879618,32.555610136809264-18.178554439849904,3.067133815158741-.159898895570223,12.140421145519213.60683580856039,17.316075397029635.798714483250478,14.185177022289281-.127919116460362,28.338569264120451-.255838232910719,42.491766507289867-.830694262360339,14.568544374360499-1.757327862050261,27.475700224011234-11.213982544470127,36.74086622905088-20.255290095719829,9.264971006399719-9.041307551259706,14.887952168188349-17.66765796863001,14.887952168188349-17.66765796863001,6.102287851212168-9.361105342390147,11.757053793451632-18.977658920380236,16.80498392716072-28.849660733990277,9.137246888580194-17.987065762459679,14.440820256559164-37.922948064349839,22.747372882789932-60.57438160978927-4.281195429579384.447326910289121-8.146848729329577.830694262351244-11.693094235230092,1.214061614415186-1.150297054849943.095939337339587-2.268419331920086.22385845379722-3.354756828530299.351387572945896h-.127724117799517c-2.236439552809316.223468456495539-4.376939768269949.44732691029094-6.421695645040018.671185364093617-2.076540657239093.22346845649372-4.057531974429367.414957133869393-5.974368734750897.638815587668432-2.491887788408349.255448235606309-4.888031238118856.542876250328845-7.284174687838458.862674041467471-36.772846008170745,4.632388003870801-73.449947677640012,9.903981592717173-110.318538024481313,13.642105773313233-.351387572958629.031979779112589-.702775145909982,0-1.054357717508537,0-19.232912157340252,1.277631175335955-27.34797610618989-3.930002855280691-31.756895653570609-13.482596875050149l29.169068527820855-4.089121756233908c1.565449187359263-.255838232912538,3.131093373389376-.511676465825985,4.72852233985941-.703165143207116,2.172479994569585-.287428014718898,4.344959989159179-.575246026746754,6.517439983728764-.862284044160333l3.705949402821716-.511676465825076v.031979779114408c34.951753586537961-4.600408224756393,69.967466731308377-8.945368213906477,104.855260759610246-13.897164011612404Z"/>
      <path class="cls-2" d="M1081.510012954880949,790.534459581149349c-15.335279078481108-22.843312220129519-19.935882301881065-45.974052454981575-20.798361344710429-71.916283270729764-2.396143449721421-73.513712237207073-30.12748690798071-135.972755829547168-82.970561918280509-187.410280548061564-35.494824835519466-34.536211456703313-54.983380227109592-36.708886449929196-95.558114975439821-9.10526710947488-.543266247639622.383367352063942-1.150297054840848.703165143206206-1.661388524709764,1.118122277075599-73.162324664261178,59.680117786516348-127.442929745471702,129.711349077393606-129.93481753388005,229.742148159790304-.351387572960448,13.801614671572679-6.421695645040018,28.977189853138043-14.057452904489764,40.79839820347479-31.980559108720627,49.424358623546141-51.053767369139678,102.874659439714378-38.94532600274033,161.084877378902092,7.827440935488994,37.699089610552619,25.07975177292974,73.641241356363935,40.319091514069441,109.455863983013842,6.517634982381423,15.239534739790543,9.073482329020408,28.274024709930018,3.738124180590603,44.376233491189851-5.015950354580127,15.111615623340185-7.859420714590669,31.501642416630602-8.402491963570355,47.411972523200347-.543266247628708,15.111615623330181,3.865653299739279,29.967393013760557,22.20410663515031,42.203948495280201-5.303378369309939-34.152844104650285-10.862399972869753-64.759832700689913,6.996746673128655-94.376228138799888,51.782477335900694,85.231181304069651,93.063692204552353,121.8560233345097,120.302469064990873,137.4851653832593,8.683095025429793,5.802184924030371,18.75633544907032,10.286763948820408,29.755624476449157,11.128768133060476,4.554193543961446.575441025400323,6.982316772791819.171598814749814,7.094051001040498.144689000630024,1.106227359230616-.062204570360336,2.258474400610794-.242383325859919,3.435096273620729-.487301634189862,6.636974158089288-.950228436729958,13.530371545070011-3.35495182718023,20.588737792590109-7.641802217700388l-.013454907069899.015209894940199c10.592131839630383-3.975242542800515,26.230633823739481-22.140342075569606,38.694167737499811-38.490394144970196,19.21399728797951-20.907755589109911,38.506969030479013-45.420646277380001,53.864087958119853-65.981499262559737,3.028914079130118-3.352806842010068,6.031113342800381-6.728623525070361,8.960383110190378-10.166644778500086,6.63463417425919-7.781226254690409,11.798978503889884-16.799328966209941,16.968977794460443-25.817431677740387,3.424371347689885-4.936000906799563,5.354273017768719-7.807161075559634,5.356613001598816-7.810671051319332,3.336816952440131-3.492620876290857,6.475905270601288-4.710972461080019,6.300211484131069,3.372891703279493-3.258622492539871,18.210924216260537-13.130819304791657,72.459549518360291-14.632308933920285,73.513712237210711.063764559579795.031979779108951.191683676028333.031979779108951.319407793838764.031979779108951h.191683676021057c2.492082787059189.063569560920769,14.376860698319433-.639205584979209,21.501331489249424-19.169147597759547.159898895570223-.383367352059395.319602792500518-.830694262350335.479306689408986-1.246041393529595,2.396143449721421-6.741103438870596,4.185256092241616-15.654881870969803,4.728327341210388-27.571639561340817,1.054357717501262-13.610125994199734,1.118317275720983-27.347781107549963,2.076735655900848-40.989886880859558.575051028090456-8.530411080039812-.319407793838764-18.178944437139762,3.322582050750498-25.303415228079757,46.868901274219752-91.564737557891931,47.954653774879262-181.691555047575093-10.223584385199501-268.400046147800822ZM780.490592110691068,681.877310081372343c2.20445977368945-4.632778001174302,8.178828508429433-11.693289233880932,24.280842291038425-12.364084600665592.383367352060304-.031979779112589.734949923660679-.031979779112589,1.086337496610213-.063959558225179,5.910409176520261.191878674684631,11.821013351691363.319797791138626,17.73142252820071.44732691029094,21.597270826599924.351387572947715,29.903823452839788-5.431492484420232,33.801651530349773-15.622902091854485l-58.402096613879621-3.354756828532118c1.917031758979647-16.932513046307577,7.731696596798429-21.117574139886528,22.811332441018749-19.456185615175855,1.373765511340025.127529119148676,2.779510801790821.255058238299171,4.185256092230702.414957133870303,18.849739803939883,2.620001903517732,37.954927843460609,4.057531974428457,56.96437154430896,5.112084690584197,21.533311268380203,1.181691837991821,30.095507128860845-4.249410649115816,34.376702558442048-14.249136580525374l-91.181370205831627-8.977347993019066c-4.792286899439205-4.88822623678243.86267404146929-11.725269012993522,1.949011538079503-12.971310406524935,20.446973771760895-20.287269874838785,41.149785776429781-40.383051072298258,61.277351754350093-60.989728740973078,17.443799514821876-17.859146646002046,37.635325050981919-17.699637747738961,57.060115883001345-7.028921450897542,15.590922312740076,8.562390859149673,29.328772424740237,20.57508788686755,43.673653343948899,31.501642416622417.862674041471109,3.482285947678974,1.341980730871001,7.53942792480666.095939337330492,10.479227619462108h-116.133202862300095c3.226837712070846,11.08606342801977,11.182002765359357,17.763207308664278,32.747293812841235,18.753410469280425,26.197874050008977,1.182471832609735,52.715155893849442,1.69336830382781,78.721346267839181-.958223381501739,16.709044589810219-1.725348082938581,25.431139345870179,3.098918595616851,30.92620139121027,17.795187087775048,3.162878153838392,8.43447174269204,6.581399541948485,16.836768707617011,10.383288282118883,26.069954933553163l-.159703896919382-.127919116459452c.063959558228817.095939337343225.191683676039247.319407793833307.383367352071218.639205584975571.92643860103999,2.268224333263788,1.885051979848868,4.600408224756393,2.843470359999628,6.996551674479633.830694262360339,3.386736607642888.766734704129703,7.156450570044399-2.204459773680355,9.520614240651412-6.453675424150788.511286468517937-12.875371069190805,1.022572937039513-19.201127376889417,1.565449187366539-2.204459773682174-.191488677375673-2.491887788390159-.127919116457633-1.501489629121352.095939337343225-24.536680523959149,2.012776097657479-48.338216125599502,3.929612857971733-72.07598716766006,5.878819394708444l-17.507954071699714,1.117732279767552c3.354561829879458,7.636147256760523,9.648533357109045,12.523983496237634,23.737771042060558,13.738045110651001,2.012776097650203.383367352065761,4.632583002530737.415347131178351,8.147043727960408.447326910292759,24.600250084879008.287428014724355,48.785348037228687-2.907429918240268,72.587078637528975-4.983775576818516,12.268340261980484-1.08653249526833,18.913504363490574,1.980406321234113,19.360831273790609,15.846370548344566.575051028088637,18.082615102497584,2.875450139119494,36.102050641376991,4.504858884720306,55.14327912268709-93.353850200410307,13.386267540397967-183.927994600380771-5.271593588848191-278.527886194320672-7.380309023847076,4.472879105609536-18.466372451866846,7.795461156370948-36.197599981413077,13.25873842125111-53.034563687686386ZM721.92879159990116,862.706191087481784c14.88814716683919-50.670400017077554,16.197953119948579-49.040991271485836,70.638457096727507-38.242355858183146,13.609930995551622,2.683961461747458,27.347976106200804,4.85624645767075,41.117805997311734,6.741103438869686,22.300045972498992,4.696737559404028,45.207122752208306,7.379919026539028,67.954495634990963,9.48902445884778,21.50152648790754,2.01238610035125,30.319170584009044-3.194857932961895,35.143437262559019-13.195168860329431l-62.555177928330522-8.625960420067713c-38.306510415070079-5.910409176518442-76.836489286619326-11.884777911262063-116.292906759230391-17.987065762463317,5.559021603570727-16.038249223028288,7.763481377260177-27.635599119570543,13.578146215091692-36.996314464651732,3.258817491179798-5.271593588846372,12.523788497579517-9.648533357109045,19.041423479959121-9.584573798882047,24.248862511920379.223468456491901,48.465940243380828,2.970999479162856,72.714802755310302,3.897633078859144,53.865452948688471,2.044755876770068,107.73071089872974,4.121491532656364,161.627948627869046,4.920206015895019,13.642105773320509.191488677379311,22.811332441020568,3.226837712076303,29.616395438129985,15.590532315434757,17.060432162761572,31.022335727217069,39.520377030821692,59.360709992683041,47.347817966310686,96.996230042312163-124.407775709440102,47.347622967659845-246.451387748249545,31.533232198432415-368.431040228850179,1.277631175338684-10.830615192409823-3.450306168566385-12.076656585941237-9.967551153637032-11.501605557848961-14.280921360979846ZM965.600668546368979,979.702262989912924c-2.172479994569585.287038017413579-4.344959989159179.574856029441435-6.517439983728764.862284044160333-1.597428966470034.19148867738113-3.163073152500147.447326910294578-4.72852233985941.703165143207116l-29.169068527820855,4.089121756233908c4.408919547380719,9.552594019769458,12.523983496230358,14.760228050386104,31.756895653570609,13.482596875050149.351582571598556,0,.702970144549909.031979779112589,1.054357717508537,0,36.868590346841302-3.73812418059606,73.545692016310568-9.009717769442432,110.318538024481313-13.642105773313233,2.396143449719602-.319797791138626,4.79228689943011-.607225805861162,7.284174687838458-.862674041467471,1.91683676032153-.223858453799039,3.897828077511804-.415347131174713,5.974368734750897-.638815587668432,2.044755876770068-.223858453802677,4.185256092230702-.447716907598078,6.421695645040018-.671185364093617h.127724117799517c1.086337496610213-.127529119148676,2.204459773680355-.255448235606309,3.354756828530299-.351387572945896,3.546245505900515-.383367352063942,7.411898805650708-.766734704126065,11.693094235230092-1.214061614415186-8.306552626230769,22.651433545439431-13.610125994209739,42.587315847329592-22.747372882789932,60.57438160978927-5.047930133709087,9.872001813610041-10.702696075948552,19.48855539160013-16.80498392716072,28.849660733990277,0,0-5.62298116178863,8.626350417370304-14.887952168188349,17.66765796863001-9.265166005039646,9.041307551249702-22.172321854690381,18.497962233669568-36.74086622905088,20.255290095719829-14.153197243169416.57485602944962-28.306589485000586.702775145899977-42.491766507289867.830694262360339-5.175654251510423-.191878674690088-14.248941581870895-.958613378820701-17.316075397029635-.798714483250478-21.59727082659083,1.086142497970286-29.456496542541572,7.571797701230025-32.555610136809264,18.178554439849904l37.986907622569561-.287428014719808c20.415188991308241.287428014719808,40.415030851418123-.031979779119865,58.593780289920687-.031979779119865-19.188257465781135,25.447909230049845-38.740967414261831,51.401449967680492-58.392346681230265,77.489539775970115-10.510232405311399,10.668181314349567-45.083493606111006,40.418540827169636-79.370886781411173,10.871954906880092-4.163806240389022-4.793066894049844-8.50272127127937-9.518079258160469-12.950445550639415-14.211501840460187-.04075471851138-.055379617489962-.082094432969825-.100814303670631-.122849151470291-.156388919820529,0,0-.015014896300272.008384942090743-.015989889559933.008969938050541-12.721322133209469-13.41610233433039-26.234728795450792-26.636621019570157-38.634693148300357-40.807953137479672-16.932708044949322-19.329046493340684-31.34154852239044-40.862357761710882-46.42118436661076-62.491608367420667-.031979779119865-.063569560919859-.063959558228817-.09554934002972-.095939337348682-.159508898269451-1.054162718839507-1.469899847320448-2.076540657220903-2.939409697340125-3.098918595609575-4.408919547369806-6.837042776211092-11.884777911260244,5.974368734739983-13.2587384212502,17.092411941877799-12.523593498930495,23.386383469111024,2.491692789760236,46.038012013210391,9.041307551249702,68.817364675111094,10.478837622149513v-.031979779109861c16.070034003490946,1.757327862050261,26.165894270880017-5.431102487109456,30.223231246660362-14.983696506869819l-44.152960033348791-5.622981161799544c-25.590648244142358-3.706144401480742-51.213471266060878-7.060901230010131-76.772334729750582-10.894574750640459-25.367179787650457-3.833673520629418-28.785701175751456-7.923185274179559-33.514028516970939-38.338295195530009,18.370433114529078,2.939409697350129,36.005916305379287,6.677533877949827,53.833278170930498,8.498431300919947,21.117964137200033,2.108715435000704,42.236123273029079,4.089121756240274,63.386067189348978,5.846449618290535v-.031979779109861c1.916836760301521.223858453789944,3.833868519281168.447326910289121,5.686745721361149.479306689399891,21.629250605708876.41534713118017,29.904018451490629-5.399512705300367,33.737691972119137-15.654881870970712l-44.440388048069508-2.68357146443941c-1.757132863400329-.191488677380221-3.51446072544968-.383367352060304-5.303573367958961-.575246026750392-34.791854690971377-3.929612857969914-69.328261146321893-9.903981592709897-104.088331056831521-14.248941581859981-12.619727834919104-1.565449187370177-18.977463921728486-7.635757259456113-21.533311268369289-19.775983406324485-6.23001196900077-29.616395438111795-11.88497290992018-59.136851538884002-4.504858884720306-91.373248880516257,130.126501209921116,32.58778491457997,259.262799259209714,50.446931560583835,390.379698628399638,2.971389476468175,0,14.504389817473566.47930668940171,28.050946250748893.159508898261265,41.181765555536913-1.756937864742213,11.182002765362995-8.625960420071351,26.006190373978825-31.948384330949921,29.776294333685655-34.887794028301869,4.951795797705927-69.903507173072285,9.296755786856011-104.855260759610246,13.897164011612404v-.031979779114408l-3.705949402821716.511676465825076Z"/>
    </g>
  </g>
</svg>